<?xml version="1.0" encoding="utf-8"?>
<!-- Generator: Adobe Illustrator 24.0.0, SVG Export Plug-In . SVG Version: 6.00 Build 0)  -->
<svg version="1.1" xmlns="http://www.w3.org/2000/svg" xmlns:xlink="http://www.w3.org/1999/xlink" x="0px" y="0px" width="150px"
	 height="200px" viewBox="0 0 150 200" style="enable-background:new 0 0 150 200;" xml:space="preserve">
<style type="text/css">
	.st0{fill:#E2D7C8;}
	.st1{fill:#EDE5DD;stroke:#C9B49F;stroke-width:0.25;stroke-miterlimit:10;}
	.st2{fill:#FFFFFF;}
	.st3{display:none;}
	.st4{display:inline;fill:#E2D7C8;}
	.st5{display:inline;fill:#EDE5DD;stroke:#C9B49F;stroke-width:0.25;stroke-miterlimit:10;}
	.st6{display:inline;}
	.st7{clip-path:url(#SVGID_2_);}
	.st8{fill:url(#SVGID_3_);}
	.st9{fill:#5B4F68;}
	.st10{fill:#796985;}
</style>
<g id="Warstwa_1">
	<path class="st0" d="M145,200H5c-2.8,0-5-2.3-5-5V5c0-2.8,2.3-5,5-5h140c2.8,0,5,2.3,5,5v190C150,197.8,147.8,200,145,200z"/>
	<path class="st1" d="M141,195H9c-2.8,0-5-2.3-5-5V10c0-2.8,2.3-5,5-5h132c2.8,0,5,2.3,5,5v180C146,192.8,143.8,195,141,195z"/>
	<path class="st2" d="M139.1,192H10.9c-2.2,0-3.9-1.8-3.9-3.9V11.9C7,9.8,8.8,8,10.9,8h128.1c2.2,0,3.9,1.8,3.9,3.9v176.1
		C143,190.2,141.2,192,139.1,192z"/>
</g>
<g id="Warstwa_2" class="st3">
	<g class="st6">
		<defs>
			<rect id="SVGID_1_" x="-160" y="8" width="136" height="184"/>
		</defs>
		<clipPath id="SVGID_2_">
			<use xlink:href="#SVGID_1_"  style="overflow:visible;"/>
		</clipPath>
		<g class="st7">
			<g>
				<path class="st9" d="M-2.1,205.7l-7.2-7.2l7.2-7.2l7.2,7.2L-2.1,205.7z M-8.4,198.5l6.3,6.3l6.3-6.3l-6.3-6.3L-8.4,198.5z"/>
				<path class="st9" d="M4.6,212.4l-7.2-7.2l7.2-7.2l7.2,7.2L4.6,212.4z M-1.6,205.3l6.3,6.3l6.3-6.3L4.6,199L-1.6,205.3z"/>
			</g>
			<g>
				<path class="st9" d="M-2.1,30.5l-7.2-7.2l7.2-7.2l7.2,7.2L-2.1,30.5z M-8.4,23.3l6.3,6.3l6.3-6.3L-2.1,17L-8.4,23.3z"/>
				<path class="st9" d="M-2.1,17l-7.2-7.2l7.2-7.2l7.2,7.2L-2.1,17z M-8.4,9.8l6.3,6.3l6.3-6.3l-6.3-6.3L-8.4,9.8z"/>
				<path class="st9" d="M4.6,23.8l-7.2-7.2l7.2-7.2l7.2,7.2L4.6,23.8z M-1.6,16.6l6.3,6.3l6.3-6.3l-6.3-6.3L-1.6,16.6z"/>
				<path class="st9" d="M4.6,10.3l-7.2-7.2l7.2-7.2l7.2,7.2L4.6,10.3z M-1.6,3.1l6.3,6.3l6.3-6.3L4.6-3.2L-1.6,3.1z"/>
				<path class="st9" d="M11.4,17L4.2,9.8l7.2-7.2l7.2,7.2L11.4,17z M5.1,9.8l6.3,6.3l6.3-6.3l-6.3-6.3L5.1,9.8z"/>
				<path class="st9" d="M-2.1,57.4l-7.2-7.2l7.2-7.2l7.2,7.2L-2.1,57.4z M-8.4,50.3l6.3,6.3l6.3-6.3L-2.1,44L-8.4,50.3z"/>
				<path class="st9" d="M-2.1,44l-7.2-7.2l7.2-7.2l7.2,7.2L-2.1,44z M-8.4,36.8l6.3,6.3l6.3-6.3l-6.3-6.3L-8.4,36.8z"/>
				<path class="st9" d="M4.6,50.7l-7.2-7.2l7.2-7.2l7.2,7.2L4.6,50.7z M-1.6,43.5l6.3,6.3l6.3-6.3l-6.3-6.3L-1.6,43.5z"/>
				<path class="st9" d="M4.6,37.2L-2.5,30l7.2-7.2l7.2,7.2L4.6,37.2z M-1.6,30l6.3,6.3l6.3-6.3l-6.3-6.3L-1.6,30z"/>
				<path class="st9" d="M11.4,44l-7.2-7.2l7.2-7.2l7.2,7.2L11.4,44z M5.1,36.8l6.3,6.3l6.3-6.3l-6.3-6.3L5.1,36.8z"/>
				<path class="st9" d="M11.4,30.5l-7.2-7.2l7.2-7.2l7.2,7.2L11.4,30.5z M5.1,23.3l6.3,6.3l6.3-6.3L11.4,17L5.1,23.3z"/>
				<path class="st9" d="M18.1,37.2L10.9,30l7.2-7.2l7.2,7.2L18.1,37.2z M11.8,30l6.3,6.3l6.3-6.3l-6.3-6.3L11.8,30z"/>
				<path class="st9" d="M18.1,23.8l-7.2-7.2l7.2-7.2l7.2,7.2L18.1,23.8z M11.8,16.6l6.3,6.3l6.3-6.3l-6.3-6.3L11.8,16.6z"/>
				<path class="st9" d="M24.9,30.5l-7.2-7.2l7.2-7.2l7.2,7.2L24.9,30.5z M18.6,23.3l6.3,6.3l6.3-6.3L24.9,17L18.6,23.3z"/>
				<path class="st9" d="M-2.1,84.4l-7.2-7.2l7.2-7.2l7.2,7.2L-2.1,84.4z M-8.4,77.2l6.3,6.3l6.3-6.3l-6.3-6.3L-8.4,77.2z"/>
				<path class="st9" d="M-2.1,70.9l-7.2-7.2l7.2-7.2l7.2,7.2L-2.1,70.9z M-8.4,63.7l6.3,6.3l6.3-6.3l-6.3-6.3L-8.4,63.7z"/>
				<path class="st9" d="M4.6,77.7l-7.2-7.2l7.2-7.2l7.2,7.2L4.6,77.7z M-1.6,70.5l6.3,6.3l6.3-6.3l-6.3-6.3L-1.6,70.5z"/>
				<path class="st9" d="M4.6,64.2L-2.5,57l7.2-7.2l7.2,7.2L4.6,64.2z M-1.6,57l6.3,6.3l6.3-6.3l-6.3-6.3L-1.6,57z"/>
				<path class="st9" d="M11.4,70.9l-7.2-7.2l7.2-7.2l7.2,7.2L11.4,70.9z M5.1,63.7l6.3,6.3l6.3-6.3l-6.3-6.3L5.1,63.7z"/>
				<path class="st9" d="M11.4,57.4l-7.2-7.2l7.2-7.2l7.2,7.2L11.4,57.4z M5.1,50.3l6.3,6.3l6.3-6.3L11.4,44L5.1,50.3z"/>
				<path class="st9" d="M18.1,64.2L10.9,57l7.2-7.2l7.2,7.2L18.1,64.2z M11.8,57l6.3,6.3l6.3-6.3l-6.3-6.3L11.8,57z"/>
				<path class="st9" d="M18.1,50.7l-7.2-7.2l7.2-7.2l7.2,7.2L18.1,50.7z M11.8,43.5l6.3,6.3l6.3-6.3l-6.3-6.3L11.8,43.5z"/>
				<path class="st9" d="M24.9,57.4l-7.2-7.2l7.2-7.2l7.2,7.2L24.9,57.4z M18.6,50.3l6.3,6.3l6.3-6.3L24.9,44L18.6,50.3z"/>
				<path class="st9" d="M24.9,44l-7.2-7.2l7.2-7.2l7.2,7.2L24.9,44z M18.6,36.8l6.3,6.3l6.3-6.3l-6.3-6.3L18.6,36.8z"/>
				<path class="st9" d="M31.6,50.7l-7.2-7.2l7.2-7.2l7.2,7.2L31.6,50.7z M25.3,43.5l6.3,6.3l6.3-6.3l-6.3-6.3L25.3,43.5z"/>
				<path class="st9" d="M31.6,37.2L24.4,30l7.2-7.2l7.2,7.2L31.6,37.2z M25.3,30l6.3,6.3l6.3-6.3l-6.3-6.3L25.3,30z"/>
				<path class="st9" d="M38.3,44l-7.2-7.2l7.2-7.2l7.2,7.2L38.3,44z M32,36.8l6.3,6.3l6.3-6.3l-6.3-6.3L32,36.8z"/>
				<path class="st9" d="M-2.1,111.4l-7.2-7.2l7.2-7.2l7.2,7.2L-2.1,111.4z M-8.4,104.2l6.3,6.3l6.3-6.3l-6.3-6.3L-8.4,104.2z"/>
				<path class="st9" d="M-2.1,97.9l-7.2-7.2l7.2-7.2l7.2,7.2L-2.1,97.9z M-8.4,90.7l6.3,6.3l6.3-6.3l-6.3-6.3L-8.4,90.7z"/>
				<path class="st9" d="M4.6,104.6l-7.2-7.2l7.2-7.2l7.2,7.2L4.6,104.6z M-1.6,97.4l6.3,6.3l6.3-6.3l-6.3-6.3L-1.6,97.4z"/>
				<path class="st9" d="M4.6,91.1L-2.5,84l7.2-7.2l7.2,7.2L4.6,91.1z M-1.6,84l6.3,6.3l6.3-6.3l-6.3-6.3L-1.6,84z"/>
				<path class="st9" d="M11.4,97.9l-7.2-7.2l7.2-7.2l7.2,7.2L11.4,97.9z M5.1,90.7l6.3,6.3l6.3-6.3l-6.3-6.3L5.1,90.7z"/>
				<path class="st9" d="M11.4,84.4l-7.2-7.2l7.2-7.2l7.2,7.2L11.4,84.4z M5.1,77.2l6.3,6.3l6.3-6.3l-6.3-6.3L5.1,77.2z"/>
				<path class="st9" d="M18.1,91.1L10.9,84l7.2-7.2l7.2,7.2L18.1,91.1z M11.8,84l6.3,6.3l6.3-6.3l-6.3-6.3L11.8,84z"/>
				<path class="st9" d="M18.1,77.7l-7.2-7.2l7.2-7.2l7.2,7.2L18.1,77.7z M11.8,70.5l6.3,6.3l6.3-6.3l-6.3-6.3L11.8,70.5z"/>
				<path class="st9" d="M24.9,84.4l-7.2-7.2l7.2-7.2l7.2,7.2L24.9,84.4z M18.6,77.2l6.3,6.3l6.3-6.3l-6.3-6.3L18.6,77.2z"/>
				<path class="st9" d="M24.9,70.9l-7.2-7.2l7.2-7.2l7.2,7.2L24.9,70.9z M18.6,63.7l6.3,6.3l6.3-6.3l-6.3-6.3L18.6,63.7z"/>
				<path class="st9" d="M31.6,77.7l-7.2-7.2l7.2-7.2l7.2,7.2L31.6,77.7z M25.3,70.5l6.3,6.3l6.3-6.3l-6.3-6.3L25.3,70.5z"/>
				<path class="st9" d="M31.6,64.2L24.4,57l7.2-7.2l7.2,7.2L31.6,64.2z M25.3,57l6.3,6.3l6.3-6.3l-6.3-6.3L25.3,57z"/>
				<path class="st9" d="M38.3,70.9l-7.2-7.2l7.2-7.2l7.2,7.2L38.3,70.9z M32,63.7l6.3,6.3l6.3-6.3l-6.3-6.3L32,63.7z"/>
				<path class="st9" d="M38.3,57.4l-7.2-7.2l7.2-7.2l7.2,7.2L38.3,57.4z M32,50.3l6.3,6.3l6.3-6.3L38.3,44L32,50.3z"/>
				<path class="st9" d="M45.1,64.2L37.9,57l7.2-7.2l7.2,7.2L45.1,64.2z M38.8,57l6.3,6.3l6.3-6.3l-6.3-6.3L38.8,57z"/>
				<path class="st9" d="M45.1,50.7l-7.2-7.2l7.2-7.2l7.2,7.2L45.1,50.7z M38.8,43.5l6.3,6.3l6.3-6.3l-6.3-6.3L38.8,43.5z"/>
				<path class="st9" d="M51.8,57.4l-7.2-7.2l7.2-7.2l7.2,7.2L51.8,57.4z M45.5,50.3l6.3,6.3l6.3-6.3L51.8,44L45.5,50.3z"/>
				<path class="st9" d="M-2.1,138.3l-7.2-7.2l7.2-7.2l7.2,7.2L-2.1,138.3z M-8.4,131.1l6.3,6.3l6.3-6.3l-6.3-6.3L-8.4,131.1z"/>
				<path class="st9" d="M-2.1,124.8l-7.2-7.2l7.2-7.2l7.2,7.2L-2.1,124.8z M-8.4,117.6l6.3,6.3l6.3-6.3l-6.3-6.3L-8.4,117.6z"/>
				<path class="st9" d="M4.6,131.6l-7.2-7.2l7.2-7.2l7.2,7.2L4.6,131.6z M-1.6,124.4l6.3,6.3l6.3-6.3l-6.3-6.3L-1.6,124.4z"/>
				<path class="st9" d="M4.6,118.1l-7.2-7.2l7.2-7.2l7.2,7.2L4.6,118.1z M-1.6,110.9l6.3,6.3l6.3-6.3l-6.3-6.3L-1.6,110.9z"/>
				<path class="st9" d="M11.4,124.8l-7.2-7.2l7.2-7.2l7.2,7.2L11.4,124.8z M5.1,117.6l6.3,6.3l6.3-6.3l-6.3-6.3L5.1,117.6z"/>
				<path class="st9" d="M11.4,111.4l-7.2-7.2l7.2-7.2l7.2,7.2L11.4,111.4z M5.1,104.2l6.3,6.3l6.3-6.3l-6.3-6.3L5.1,104.2z"/>
				<path class="st9" d="M18.1,118.1l-7.2-7.2l7.2-7.2l7.2,7.2L18.1,118.1z M11.8,110.9l6.3,6.3l6.3-6.3l-6.3-6.3L11.8,110.9z"/>
				<path class="st9" d="M18.1,104.6l-7.2-7.2l7.2-7.2l7.2,7.2L18.1,104.6z M11.8,97.4l6.3,6.3l6.3-6.3l-6.3-6.3L11.8,97.4z"/>
				<path class="st9" d="M24.9,111.4l-7.2-7.2l7.2-7.2l7.2,7.2L24.9,111.4z M18.6,104.2l6.3,6.3l6.3-6.3l-6.3-6.3L18.6,104.2z"/>
				<path class="st9" d="M24.9,97.9l-7.2-7.2l7.2-7.2l7.2,7.2L24.9,97.9z M18.6,90.7l6.3,6.3l6.3-6.3l-6.3-6.3L18.6,90.7z"/>
				<path class="st9" d="M31.6,104.6l-7.2-7.2l7.2-7.2l7.2,7.2L31.6,104.6z M25.3,97.4l6.3,6.3l6.3-6.3l-6.3-6.3L25.3,97.4z"/>
				<path class="st9" d="M31.6,91.1L24.4,84l7.2-7.2l7.2,7.2L31.6,91.1z M25.3,84l6.3,6.3l6.3-6.3l-6.3-6.3L25.3,84z"/>
				<path class="st9" d="M38.3,97.9l-7.2-7.2l7.2-7.2l7.2,7.2L38.3,97.9z M32,90.7l6.3,6.3l6.3-6.3l-6.3-6.3L32,90.7z"/>
				<path class="st9" d="M38.3,84.4l-7.2-7.2l7.2-7.2l7.2,7.2L38.3,84.4z M32,77.2l6.3,6.3l6.3-6.3l-6.3-6.3L32,77.2z"/>
				<path class="st9" d="M45.1,91.1L37.9,84l7.2-7.2l7.2,7.2L45.1,91.1z M38.8,84l6.3,6.3l6.3-6.3l-6.3-6.3L38.8,84z"/>
				<path class="st9" d="M45.1,77.7l-7.2-7.2l7.2-7.2l7.2,7.2L45.1,77.7z M38.8,70.5l6.3,6.3l6.3-6.3l-6.3-6.3L38.8,70.5z"/>
				<path class="st9" d="M51.8,84.4l-7.2-7.2l7.2-7.2l7.2,7.2L51.8,84.4z M45.5,77.2l6.3,6.3l6.3-6.3l-6.3-6.3L45.5,77.2z"/>
				<path class="st9" d="M51.8,70.9l-7.2-7.2l7.2-7.2l7.2,7.2L51.8,70.9z M45.5,63.7l6.3,6.3l6.3-6.3l-6.3-6.3L45.5,63.7z"/>
				<path class="st9" d="M58.6,77.7l-7.2-7.2l7.2-7.2l7.2,7.2L58.6,77.7z M52.3,70.5l6.3,6.3l6.3-6.3l-6.3-6.3L52.3,70.5z"/>
				<path class="st9" d="M58.6,64.2L51.4,57l7.2-7.2l7.2,7.2L58.6,64.2z M52.3,57l6.3,6.3l6.3-6.3l-6.3-6.3L52.3,57z"/>
				<path class="st9" d="M65.3,70.9l-7.2-7.2l7.2-7.2l7.2,7.2L65.3,70.9z M59,63.7l6.3,6.3l6.3-6.3l-6.3-6.3L59,63.7z"/>
			</g>
			<g>
				<path class="st9" d="M-2.1,165.3l-7.2-7.2l7.2-7.2l7.2,7.2L-2.1,165.3z M-8.4,158.1l6.3,6.3l6.3-6.3l-6.3-6.3L-8.4,158.1z"/>
				<path class="st9" d="M-2.1,151.8l-7.2-7.2l7.2-7.2l7.2,7.2L-2.1,151.8z M-8.4,144.6l6.3,6.3l6.3-6.3l-6.3-6.3L-8.4,144.6z"/>
				<path class="st9" d="M4.6,158.5l-7.2-7.2l7.2-7.2l7.2,7.2L4.6,158.5z M-1.6,151.3l6.3,6.3l6.3-6.3l-6.3-6.3L-1.6,151.3z"/>
				<path class="st9" d="M4.6,145.1l-7.2-7.2l7.2-7.2l7.2,7.2L4.6,145.1z M-1.6,137.9l6.3,6.3l6.3-6.3l-6.3-6.3L-1.6,137.9z"/>
				<path class="st9" d="M11.4,151.8l-7.2-7.2l7.2-7.2l7.2,7.2L11.4,151.8z M5.1,144.6l6.3,6.3l6.3-6.3l-6.3-6.3L5.1,144.6z"/>
				<path class="st9" d="M11.4,138.3l-7.2-7.2l7.2-7.2l7.2,7.2L11.4,138.3z M5.1,131.1l6.3,6.3l6.3-6.3l-6.3-6.3L5.1,131.1z"/>
				<path class="st9" d="M18.1,145.1l-7.2-7.2l7.2-7.2l7.2,7.2L18.1,145.1z M11.8,137.9l6.3,6.3l6.3-6.3l-6.3-6.3L11.8,137.9z"/>
				<path class="st9" d="M18.1,131.6l-7.2-7.2l7.2-7.2l7.2,7.2L18.1,131.6z M11.8,124.4l6.3,6.3l6.3-6.3l-6.3-6.3L11.8,124.4z"/>
				<path class="st9" d="M24.9,138.3l-7.2-7.2l7.2-7.2l7.2,7.2L24.9,138.3z M18.6,131.1l6.3,6.3l6.3-6.3l-6.3-6.3L18.6,131.1z"/>
				<path class="st9" d="M24.9,124.8l-7.2-7.2l7.2-7.2l7.2,7.2L24.9,124.8z M18.6,117.6l6.3,6.3l6.3-6.3l-6.3-6.3L18.6,117.6z"/>
				<path class="st9" d="M31.6,131.6l-7.2-7.2l7.2-7.2l7.2,7.2L31.6,131.6z M25.3,124.4l6.3,6.3l6.3-6.3l-6.3-6.3L25.3,124.4z"/>
				<path class="st9" d="M31.6,118.1l-7.2-7.2l7.2-7.2l7.2,7.2L31.6,118.1z M25.3,110.9l6.3,6.3l6.3-6.3l-6.3-6.3L25.3,110.9z"/>
				<path class="st9" d="M38.3,124.8l-7.2-7.2l7.2-7.2l7.2,7.2L38.3,124.8z M32,117.6l6.3,6.3l6.3-6.3l-6.3-6.3L32,117.6z"/>
				<path class="st9" d="M38.3,111.4l-7.2-7.2l7.2-7.2l7.2,7.2L38.3,111.4z M32,104.2l6.3,6.3l6.3-6.3l-6.3-6.3L32,104.2z"/>
				<path class="st9" d="M45.1,118.1l-7.2-7.2l7.2-7.2l7.2,7.2L45.1,118.1z M38.8,110.9l6.3,6.3l6.3-6.3l-6.3-6.3L38.8,110.9z"/>
				<path class="st9" d="M45.1,104.6l-7.2-7.2l7.2-7.2l7.2,7.2L45.1,104.6z M38.8,97.4l6.3,6.3l6.3-6.3l-6.3-6.3L38.8,97.4z"/>
				<path class="st9" d="M51.8,111.4l-7.2-7.2l7.2-7.2l7.2,7.2L51.8,111.4z M45.5,104.2l6.3,6.3l6.3-6.3l-6.3-6.3L45.5,104.2z"/>
				<path class="st9" d="M51.8,97.9l-7.2-7.2l7.2-7.2l7.2,7.2L51.8,97.9z M45.5,90.7l6.3,6.3l6.3-6.3l-6.3-6.3L45.5,90.7z"/>
				<path class="st9" d="M58.6,104.6l-7.2-7.2l7.2-7.2l7.2,7.2L58.6,104.6z M52.3,97.4l6.3,6.3l6.3-6.3l-6.3-6.3L52.3,97.4z"/>
				<path class="st9" d="M58.6,91.1L51.4,84l7.2-7.2l7.2,7.2L58.6,91.1z M52.3,84l6.3,6.3l6.3-6.3l-6.3-6.3L52.3,84z"/>
				<path class="st9" d="M65.3,97.9l-7.2-7.2l7.2-7.2l7.2,7.2L65.3,97.9z M59,90.7l6.3,6.3l6.3-6.3l-6.3-6.3L59,90.7z"/>
				<path class="st9" d="M65.3,84.4l-7.2-7.2l7.2-7.2l7.2,7.2L65.3,84.4z M59,77.2l6.3,6.3l6.3-6.3l-6.3-6.3L59,77.2z"/>
				<path class="st9" d="M72,91.1L64.8,84l7.2-7.2l7.2,7.2L72,91.1z M65.7,84l6.3,6.3l6.3-6.3L72,77.7L65.7,84z"/>
				<path class="st9" d="M72,77.7l-7.2-7.2l7.2-7.2l7.2,7.2L72,77.7z M65.7,70.5l6.3,6.3l6.3-6.3L72,64.2L65.7,70.5z"/>
				<path class="st9" d="M78.8,84.4l-7.2-7.2l7.2-7.2l7.2,7.2L78.8,84.4z M72.5,77.2l6.3,6.3l6.3-6.3l-6.3-6.3L72.5,77.2z"/>
				<path class="st9" d="M-2.1,192.2l-7.2-7.2l7.2-7.2l7.2,7.2L-2.1,192.2z M-8.4,185l6.3,6.3l6.3-6.3l-6.3-6.3L-8.4,185z"/>
				<path class="st9" d="M-2.1,178.8l-7.2-7.2l7.2-7.2l7.2,7.2L-2.1,178.8z M-8.4,171.6l6.3,6.3l6.3-6.3l-6.3-6.3L-8.4,171.6z"/>
				<path class="st9" d="M4.6,185.5l-7.2-7.2l7.2-7.2l7.2,7.2L4.6,185.5z M-1.6,178.3l6.3,6.3l6.3-6.3L4.6,172L-1.6,178.3z"/>
				<path class="st9" d="M4.6,172l-7.2-7.2l7.2-7.2l7.2,7.2L4.6,172z M-1.6,164.8l6.3,6.3l6.3-6.3l-6.3-6.3L-1.6,164.8z"/>
				<path class="st9" d="M11.4,178.8l-7.2-7.2l7.2-7.2l7.2,7.2L11.4,178.8z M5.1,171.6l6.3,6.3l6.3-6.3l-6.3-6.3L5.1,171.6z"/>
				<path class="st9" d="M11.4,165.3l-7.2-7.2l7.2-7.2l7.2,7.2L11.4,165.3z M5.1,158.1l6.3,6.3l6.3-6.3l-6.3-6.3L5.1,158.1z"/>
				<path class="st9" d="M18.1,172l-7.2-7.2l7.2-7.2l7.2,7.2L18.1,172z M11.8,164.8l6.3,6.3l6.3-6.3l-6.3-6.3L11.8,164.8z"/>
				<path class="st9" d="M18.1,158.5l-7.2-7.2l7.2-7.2l7.2,7.2L18.1,158.5z M11.8,151.3l6.3,6.3l6.3-6.3l-6.3-6.3L11.8,151.3z"/>
				<path class="st9" d="M24.9,165.3l-7.2-7.2l7.2-7.2l7.2,7.2L24.9,165.3z M18.6,158.1l6.3,6.3l6.3-6.3l-6.3-6.3L18.6,158.1z"/>
				<path class="st9" d="M24.9,151.8l-7.2-7.2l7.2-7.2l7.2,7.2L24.9,151.8z M18.6,144.6l6.3,6.3l6.3-6.3l-6.3-6.3L18.6,144.6z"/>
				<path class="st9" d="M31.6,158.5l-7.2-7.2l7.2-7.2l7.2,7.2L31.6,158.5z M25.3,151.3l6.3,6.3l6.3-6.3l-6.3-6.3L25.3,151.3z"/>
				<path class="st9" d="M31.6,145.1l-7.2-7.2l7.2-7.2l7.2,7.2L31.6,145.1z M25.3,137.9l6.3,6.3l6.3-6.3l-6.3-6.3L25.3,137.9z"/>
				<path class="st9" d="M38.3,151.8l-7.2-7.2l7.2-7.2l7.2,7.2L38.3,151.8z M32,144.6l6.3,6.3l6.3-6.3l-6.3-6.3L32,144.6z"/>
				<path class="st9" d="M38.3,138.3l-7.2-7.2l7.2-7.2l7.2,7.2L38.3,138.3z M32,131.1l6.3,6.3l6.3-6.3l-6.3-6.3L32,131.1z"/>
				<path class="st9" d="M45.1,145.1l-7.2-7.2l7.2-7.2l7.2,7.2L45.1,145.1z M38.8,137.9l6.3,6.3l6.3-6.3l-6.3-6.3L38.8,137.9z"/>
				<path class="st9" d="M45.1,131.6l-7.2-7.2l7.2-7.2l7.2,7.2L45.1,131.6z M38.8,124.4l6.3,6.3l6.3-6.3l-6.3-6.3L38.8,124.4z"/>
				<path class="st9" d="M51.8,138.3l-7.2-7.2l7.2-7.2l7.2,7.2L51.8,138.3z M45.5,131.1l6.3,6.3l6.3-6.3l-6.3-6.3L45.5,131.1z"/>
				<path class="st9" d="M51.8,124.8l-7.2-7.2l7.2-7.2l7.2,7.2L51.8,124.8z M45.5,117.6l6.3,6.3l6.3-6.3l-6.3-6.3L45.5,117.6z"/>
				<path class="st9" d="M58.6,131.6l-7.2-7.2l7.2-7.2l7.2,7.2L58.6,131.6z M52.3,124.4l6.3,6.3l6.3-6.3l-6.3-6.3L52.3,124.4z"/>
				<path class="st9" d="M58.6,118.1l-7.2-7.2l7.2-7.2l7.2,7.2L58.6,118.1z M52.3,110.9l6.3,6.3l6.3-6.3l-6.3-6.3L52.3,110.9z"/>
				<path class="st9" d="M65.3,124.8l-7.2-7.2l7.2-7.2l7.2,7.2L65.3,124.8z M59,117.6l6.3,6.3l6.3-6.3l-6.3-6.3L59,117.6z"/>
				<path class="st9" d="M65.3,111.4l-7.2-7.2l7.2-7.2l7.2,7.2L65.3,111.4z M59,104.2l6.3,6.3l6.3-6.3l-6.3-6.3L59,104.2z"/>
				<path class="st9" d="M72,118.1l-7.2-7.2l7.2-7.2l7.2,7.2L72,118.1z M65.7,110.9l6.3,6.3l6.3-6.3l-6.3-6.3L65.7,110.9z"/>
				<path class="st9" d="M72,104.6l-7.2-7.2l7.2-7.2l7.2,7.2L72,104.6z M65.7,97.4l6.3,6.3l6.3-6.3L72,91.1L65.7,97.4z"/>
				<path class="st9" d="M78.8,111.4l-7.2-7.2l7.2-7.2l7.2,7.2L78.8,111.4z M72.5,104.2l6.3,6.3l6.3-6.3l-6.3-6.3L72.5,104.2z"/>
				<path class="st9" d="M78.8,97.9l-7.2-7.2l7.2-7.2l7.2,7.2L78.8,97.9z M72.5,90.7l6.3,6.3l6.3-6.3l-6.3-6.3L72.5,90.7z"/>
				<path class="st9" d="M85.5,104.6l-7.2-7.2l7.2-7.2l7.2,7.2L85.5,104.6z M79.2,97.4l6.3,6.3l6.3-6.3l-6.3-6.3L79.2,97.4z"/>
				<path class="st9" d="M85.5,91.1L78.3,84l7.2-7.2l7.2,7.2L85.5,91.1z M79.2,84l6.3,6.3l6.3-6.3l-6.3-6.3L79.2,84z"/>
				<path class="st9" d="M92.2,97.9l-7.2-7.2l7.2-7.2l7.2,7.2L92.2,97.9z M86,90.7l6.3,6.3l6.3-6.3l-6.3-6.3L86,90.7z"/>
				<path class="st9" d="M4.6,199l-7.2-7.2l7.2-7.2l7.2,7.2L4.6,199z M-1.6,191.8l6.3,6.3l6.3-6.3l-6.3-6.3L-1.6,191.8z"/>
				<path class="st9" d="M11.4,205.7l-7.2-7.2l7.2-7.2l7.2,7.2L11.4,205.7z M5.1,198.5l6.3,6.3l6.3-6.3l-6.3-6.3L5.1,198.5z"/>
				<path class="st9" d="M11.4,192.2L4.2,185l7.2-7.2l7.2,7.2L11.4,192.2z M5.1,185l6.3,6.3l6.3-6.3l-6.3-6.3L5.1,185z"/>
				<path class="st9" d="M18.1,199l-7.2-7.2l7.2-7.2l7.2,7.2L18.1,199z M11.8,191.8l6.3,6.3l6.3-6.3l-6.3-6.3L11.8,191.8z"/>
				<path class="st9" d="M18.1,185.5l-7.2-7.2l7.2-7.2l7.2,7.2L18.1,185.5z M11.8,178.3l6.3,6.3l6.3-6.3l-6.3-6.3L11.8,178.3z"/>
				<path class="st9" d="M24.9,192.2l-7.2-7.2l7.2-7.2L32,185L24.9,192.2z M18.6,185l6.3,6.3l6.3-6.3l-6.3-6.3L18.6,185z"/>
				<path class="st9" d="M24.9,178.8l-7.2-7.2l7.2-7.2l7.2,7.2L24.9,178.8z M18.6,171.6l6.3,6.3l6.3-6.3l-6.3-6.3L18.6,171.6z"/>
				<path class="st9" d="M31.6,185.5l-7.2-7.2l7.2-7.2l7.2,7.2L31.6,185.5z M25.3,178.3l6.3,6.3l6.3-6.3l-6.3-6.3L25.3,178.3z"/>
				<path class="st9" d="M31.6,172l-7.2-7.2l7.2-7.2l7.2,7.2L31.6,172z M25.3,164.8l6.3,6.3l6.3-6.3l-6.3-6.3L25.3,164.8z"/>
				<path class="st9" d="M38.3,178.8l-7.2-7.2l7.2-7.2l7.2,7.2L38.3,178.8z M32,171.6l6.3,6.3l6.3-6.3l-6.3-6.3L32,171.6z"/>
				<path class="st9" d="M38.3,165.3l-7.2-7.2l7.2-7.2l7.2,7.2L38.3,165.3z M32,158.1l6.3,6.3l6.3-6.3l-6.3-6.3L32,158.1z"/>
				<path class="st9" d="M45.1,172l-7.2-7.2l7.2-7.2l7.2,7.2L45.1,172z M38.8,164.8l6.3,6.3l6.3-6.3l-6.3-6.3L38.8,164.8z"/>
				<path class="st9" d="M45.1,158.5l-7.2-7.2l7.2-7.2l7.2,7.2L45.1,158.5z M38.8,151.3l6.3,6.3l6.3-6.3l-6.3-6.3L38.8,151.3z"/>
				<path class="st9" d="M51.8,165.3l-7.2-7.2l7.2-7.2l7.2,7.2L51.8,165.3z M45.5,158.1l6.3,6.3l6.3-6.3l-6.3-6.3L45.5,158.1z"/>
				<path class="st9" d="M51.8,151.8l-7.2-7.2l7.2-7.2l7.2,7.2L51.8,151.8z M45.5,144.6l6.3,6.3l6.3-6.3l-6.3-6.3L45.5,144.6z"/>
				<path class="st9" d="M58.6,158.5l-7.2-7.2l7.2-7.2l7.2,7.2L58.6,158.5z M52.3,151.3l6.3,6.3l6.3-6.3l-6.3-6.3L52.3,151.3z"/>
				<path class="st9" d="M58.6,145.1l-7.2-7.2l7.2-7.2l7.2,7.2L58.6,145.1z M52.3,137.9l6.3,6.3l6.3-6.3l-6.3-6.3L52.3,137.9z"/>
				<path class="st9" d="M65.3,151.8l-7.2-7.2l7.2-7.2l7.2,7.2L65.3,151.8z M59,144.6l6.3,6.3l6.3-6.3l-6.3-6.3L59,144.6z"/>
				<path class="st9" d="M65.3,138.3l-7.2-7.2l7.2-7.2l7.2,7.2L65.3,138.3z M59,131.1l6.3,6.3l6.3-6.3l-6.3-6.3L59,131.1z"/>
				<path class="st9" d="M72,145.1l-7.2-7.2l7.2-7.2l7.2,7.2L72,145.1z M65.7,137.9l6.3,6.3l6.3-6.3l-6.3-6.3L65.7,137.9z"/>
				<path class="st9" d="M72,131.6l-7.2-7.2l7.2-7.2l7.2,7.2L72,131.6z M65.7,124.4l6.3,6.3l6.3-6.3l-6.3-6.3L65.7,124.4z"/>
				<path class="st9" d="M78.8,138.3l-7.2-7.2l7.2-7.2l7.2,7.2L78.8,138.3z M72.5,131.1l6.3,6.3l6.3-6.3l-6.3-6.3L72.5,131.1z"/>
				<path class="st9" d="M78.8,124.8l-7.2-7.2l7.2-7.2l7.2,7.2L78.8,124.8z M72.5,117.6l6.3,6.3l6.3-6.3l-6.3-6.3L72.5,117.6z"/>
				<path class="st9" d="M85.5,131.6l-7.2-7.2l7.2-7.2l7.2,7.2L85.5,131.6z M79.2,124.4l6.3,6.3l6.3-6.3l-6.3-6.3L79.2,124.4z"/>
				<path class="st9" d="M85.5,118.1l-7.2-7.2l7.2-7.2l7.2,7.2L85.5,118.1z M79.2,110.9l6.3,6.3l6.3-6.3l-6.3-6.3L79.2,110.9z"/>
				<path class="st9" d="M92.2,124.8l-7.2-7.2l7.2-7.2l7.2,7.2L92.2,124.8z M86,117.6l6.3,6.3l6.3-6.3l-6.3-6.3L86,117.6z"/>
				<path class="st9" d="M92.2,111.4l-7.2-7.2l7.2-7.2l7.2,7.2L92.2,111.4z M86,104.2l6.3,6.3l6.3-6.3l-6.3-6.3L86,104.2z"/>
				<path class="st9" d="M99,118.1l-7.2-7.2l7.2-7.2l7.2,7.2L99,118.1z M92.7,110.9l6.3,6.3l6.3-6.3l-6.3-6.3L92.7,110.9z"/>
				<path class="st9" d="M99,104.6l-7.2-7.2l7.2-7.2l7.2,7.2L99,104.6z M92.7,97.4l6.3,6.3l6.3-6.3L99,91.1L92.7,97.4z"/>
				<path class="st9" d="M105.7,111.4l-7.2-7.2l7.2-7.2l7.2,7.2L105.7,111.4z M99.4,104.2l6.3,6.3l6.3-6.3l-6.3-6.3L99.4,104.2z"/>
				<path class="st9" d="M18.1,212.4l-7.2-7.2l7.2-7.2l7.2,7.2L18.1,212.4z M11.8,205.3l6.3,6.3l6.3-6.3l-6.3-6.3L11.8,205.3z"/>
				<path class="st9" d="M24.9,205.7l-7.2-7.2l7.2-7.2l7.2,7.2L24.9,205.7z M18.6,198.5l6.3,6.3l6.3-6.3l-6.3-6.3L18.6,198.5z"/>
				<path class="st9" d="M31.6,212.4l-7.2-7.2l7.2-7.2l7.2,7.2L31.6,212.4z M25.3,205.3l6.3,6.3l6.3-6.3l-6.3-6.3L25.3,205.3z"/>
				<path class="st9" d="M31.6,199l-7.2-7.2l7.2-7.2l7.2,7.2L31.6,199z M25.3,191.8l6.3,6.3l6.3-6.3l-6.3-6.3L25.3,191.8z"/>
				<path class="st9" d="M38.3,205.7l-7.2-7.2l7.2-7.2l7.2,7.2L38.3,205.7z M32,198.5l6.3,6.3l6.3-6.3l-6.3-6.3L32,198.5z"/>
				<path class="st9" d="M38.3,192.2l-7.2-7.2l7.2-7.2l7.2,7.2L38.3,192.2z M32,185l6.3,6.3l6.3-6.3l-6.3-6.3L32,185z"/>
				<path class="st9" d="M45.1,199l-7.2-7.2l7.2-7.2l7.2,7.2L45.1,199z M38.8,191.8l6.3,6.3l6.3-6.3l-6.3-6.3L38.8,191.8z"/>
				<path class="st9" d="M45.1,185.5l-7.2-7.2l7.2-7.2l7.2,7.2L45.1,185.5z M38.8,178.3l6.3,6.3l6.3-6.3l-6.3-6.3L38.8,178.3z"/>
				<path class="st9" d="M51.8,192.2l-7.2-7.2l7.2-7.2L59,185L51.8,192.2z M45.5,185l6.3,6.3l6.3-6.3l-6.3-6.3L45.5,185z"/>
				<path class="st9" d="M51.8,178.8l-7.2-7.2l7.2-7.2l7.2,7.2L51.8,178.8z M45.5,171.6l6.3,6.3l6.3-6.3l-6.3-6.3L45.5,171.6z"/>
				<path class="st9" d="M58.6,185.5l-7.2-7.2l7.2-7.2l7.2,7.2L58.6,185.5z M52.3,178.3l6.3,6.3l6.3-6.3l-6.3-6.3L52.3,178.3z"/>
				<path class="st9" d="M58.6,172l-7.2-7.2l7.2-7.2l7.2,7.2L58.6,172z M52.3,164.8l6.3,6.3l6.3-6.3l-6.3-6.3L52.3,164.8z"/>
				<path class="st9" d="M65.3,178.8l-7.2-7.2l7.2-7.2l7.2,7.2L65.3,178.8z M59,171.6l6.3,6.3l6.3-6.3l-6.3-6.3L59,171.6z"/>
				<path class="st9" d="M65.3,165.3l-7.2-7.2l7.2-7.2l7.2,7.2L65.3,165.3z M59,158.1l6.3,6.3l6.3-6.3l-6.3-6.3L59,158.1z"/>
				<path class="st9" d="M72,172l-7.2-7.2l7.2-7.2l7.2,7.2L72,172z M65.7,164.8l6.3,6.3l6.3-6.3l-6.3-6.3L65.7,164.8z"/>
				<path class="st9" d="M72,158.5l-7.2-7.2l7.2-7.2l7.2,7.2L72,158.5z M65.7,151.3l6.3,6.3l6.3-6.3l-6.3-6.3L65.7,151.3z"/>
				<path class="st9" d="M78.8,165.3l-7.2-7.2l7.2-7.2l7.2,7.2L78.8,165.3z M72.5,158.1l6.3,6.3l6.3-6.3l-6.3-6.3L72.5,158.1z"/>
				<path class="st9" d="M78.8,151.8l-7.2-7.2l7.2-7.2l7.2,7.2L78.8,151.8z M72.5,144.6l6.3,6.3l6.3-6.3l-6.3-6.3L72.5,144.6z"/>
				<path class="st9" d="M85.5,158.5l-7.2-7.2l7.2-7.2l7.2,7.2L85.5,158.5z M79.2,151.3l6.3,6.3l6.3-6.3l-6.3-6.3L79.2,151.3z"/>
				<path class="st9" d="M85.5,145.1l-7.2-7.2l7.2-7.2l7.2,7.2L85.5,145.1z M79.2,137.9l6.3,6.3l6.3-6.3l-6.3-6.3L79.2,137.9z"/>
				<path class="st9" d="M92.2,151.8l-7.2-7.2l7.2-7.2l7.2,7.2L92.2,151.8z M86,144.6l6.3,6.3l6.3-6.3l-6.3-6.3L86,144.6z"/>
				<path class="st9" d="M92.2,138.3l-7.2-7.2l7.2-7.2l7.2,7.2L92.2,138.3z M86,131.1l6.3,6.3l6.3-6.3l-6.3-6.3L86,131.1z"/>
				<path class="st9" d="M99,145.1l-7.2-7.2l7.2-7.2l7.2,7.2L99,145.1z M92.7,137.9l6.3,6.3l6.3-6.3l-6.3-6.3L92.7,137.9z"/>
				<path class="st9" d="M99,131.6l-7.2-7.2l7.2-7.2l7.2,7.2L99,131.6z M92.7,124.4l6.3,6.3l6.3-6.3l-6.3-6.3L92.7,124.4z"/>
				<path class="st9" d="M105.7,138.3l-7.2-7.2l7.2-7.2l7.2,7.2L105.7,138.3z M99.4,131.1l6.3,6.3l6.3-6.3l-6.3-6.3L99.4,131.1z"/>
				<path class="st9" d="M105.7,124.8l-7.2-7.2l7.2-7.2l7.2,7.2L105.7,124.8z M99.4,117.6l6.3,6.3l6.3-6.3l-6.3-6.3L99.4,117.6z"/>
				<path class="st9" d="M112.5,131.6l-7.2-7.2l7.2-7.2l7.2,7.2L112.5,131.6z M106.2,124.4l6.3,6.3l6.3-6.3l-6.3-6.3L106.2,124.4z"
					/>
				<path class="st9" d="M112.5,118.1l-7.2-7.2l7.2-7.2l7.2,7.2L112.5,118.1z M106.2,110.9l6.3,6.3l6.3-6.3l-6.3-6.3L106.2,110.9z"
					/>
				<path class="st9" d="M119.2,124.8l-7.2-7.2l7.2-7.2l7.2,7.2L119.2,124.8z M112.9,117.6l6.3,6.3l6.3-6.3l-6.3-6.3L112.9,117.6z"
					/>
				<path class="st9" d="M45.1,212.4l-7.2-7.2l7.2-7.2l7.2,7.2L45.1,212.4z M38.8,205.3l6.3,6.3l6.3-6.3l-6.3-6.3L38.8,205.3z"/>
				<path class="st9" d="M51.8,205.7l-7.2-7.2l7.2-7.2l7.2,7.2L51.8,205.7z M45.5,198.5l6.3,6.3l6.3-6.3l-6.3-6.3L45.5,198.5z"/>
				<path class="st9" d="M58.6,212.4l-7.2-7.2l7.2-7.2l7.2,7.2L58.6,212.4z M52.3,205.3l6.3,6.3l6.3-6.3l-6.3-6.3L52.3,205.3z"/>
				<path class="st9" d="M58.6,199l-7.2-7.2l7.2-7.2l7.2,7.2L58.6,199z M52.3,191.8l6.3,6.3l6.3-6.3l-6.3-6.3L52.3,191.8z"/>
				<path class="st9" d="M65.3,205.7l-7.2-7.2l7.2-7.2l7.2,7.2L65.3,205.7z M59,198.5l6.3,6.3l6.3-6.3l-6.3-6.3L59,198.5z"/>
				<path class="st9" d="M65.3,192.2l-7.2-7.2l7.2-7.2l7.2,7.2L65.3,192.2z M59,185l6.3,6.3l6.3-6.3l-6.3-6.3L59,185z"/>
				<path class="st9" d="M72,199l-7.2-7.2l7.2-7.2l7.2,7.2L72,199z M65.7,191.8l6.3,6.3l6.3-6.3l-6.3-6.3L65.7,191.8z"/>
				<path class="st9" d="M72,185.5l-7.2-7.2l7.2-7.2l7.2,7.2L72,185.5z M65.7,178.3l6.3,6.3l6.3-6.3L72,172L65.7,178.3z"/>
				<path class="st9" d="M78.8,192.2l-7.2-7.2l7.2-7.2L86,185L78.8,192.2z M72.5,185l6.3,6.3l6.3-6.3l-6.3-6.3L72.5,185z"/>
				<path class="st9" d="M78.8,178.8l-7.2-7.2l7.2-7.2l7.2,7.2L78.8,178.8z M72.5,171.6l6.3,6.3l6.3-6.3l-6.3-6.3L72.5,171.6z"/>
				<path class="st9" d="M85.5,185.5l-7.2-7.2l7.2-7.2l7.2,7.2L85.5,185.5z M79.2,178.3l6.3,6.3l6.3-6.3l-6.3-6.3L79.2,178.3z"/>
				<path class="st9" d="M85.5,172l-7.2-7.2l7.2-7.2l7.2,7.2L85.5,172z M79.2,164.8l6.3,6.3l6.3-6.3l-6.3-6.3L79.2,164.8z"/>
				<path class="st9" d="M92.2,178.8l-7.2-7.2l7.2-7.2l7.2,7.2L92.2,178.8z M86,171.6l6.3,6.3l6.3-6.3l-6.3-6.3L86,171.6z"/>
				<path class="st9" d="M92.2,165.3l-7.2-7.2l7.2-7.2l7.2,7.2L92.2,165.3z M86,158.1l6.3,6.3l6.3-6.3l-6.3-6.3L86,158.1z"/>
				<path class="st9" d="M99,172l-7.2-7.2l7.2-7.2l7.2,7.2L99,172z M92.7,164.8l6.3,6.3l6.3-6.3l-6.3-6.3L92.7,164.8z"/>
				<path class="st9" d="M99,158.5l-7.2-7.2l7.2-7.2l7.2,7.2L99,158.5z M92.7,151.3l6.3,6.3l6.3-6.3l-6.3-6.3L92.7,151.3z"/>
				<path class="st9" d="M105.7,165.3l-7.2-7.2l7.2-7.2l7.2,7.2L105.7,165.3z M99.4,158.1l6.3,6.3l6.3-6.3l-6.3-6.3L99.4,158.1z"/>
				<path class="st9" d="M105.7,151.8l-7.2-7.2l7.2-7.2l7.2,7.2L105.7,151.8z M99.4,144.6l6.3,6.3l6.3-6.3l-6.3-6.3L99.4,144.6z"/>
				<path class="st9" d="M112.5,158.5l-7.2-7.2l7.2-7.2l7.2,7.2L112.5,158.5z M106.2,151.3l6.3,6.3l6.3-6.3l-6.3-6.3L106.2,151.3z"
					/>
				<path class="st9" d="M112.5,145.1l-7.2-7.2l7.2-7.2l7.2,7.2L112.5,145.1z M106.2,137.9l6.3,6.3l6.3-6.3l-6.3-6.3L106.2,137.9z"
					/>
				<path class="st9" d="M119.2,151.8l-7.2-7.2l7.2-7.2l7.2,7.2L119.2,151.8z M112.9,144.6l6.3,6.3l6.3-6.3l-6.3-6.3L112.9,144.6z"
					/>
				<path class="st9" d="M119.2,138.3l-7.2-7.2l7.2-7.2l7.2,7.2L119.2,138.3z M112.9,131.1l6.3,6.3l6.3-6.3l-6.3-6.3L112.9,131.1z"
					/>
				<path class="st9" d="M125.9,145.1l-7.2-7.2l7.2-7.2l7.2,7.2L125.9,145.1z M119.7,137.9l6.3,6.3l6.3-6.3l-6.3-6.3L119.7,137.9z"
					/>
				<path class="st9" d="M125.9,131.6l-7.2-7.2l7.2-7.2l7.2,7.2L125.9,131.6z M119.7,124.4l6.3,6.3l6.3-6.3l-6.3-6.3L119.7,124.4z"
					/>
				<path class="st9" d="M132.7,138.3l-7.2-7.2l7.2-7.2l7.2,7.2L132.7,138.3z M126.4,131.1l6.3,6.3l6.3-6.3l-6.3-6.3L126.4,131.1z"
					/>
			</g>
			<circle class="st10" cx="4.6" cy="9.8" r="1.6"/>
			<circle class="st10" cx="11.4" cy="16.6" r="1.6"/>
			<circle class="st10" cx="18.1" cy="23.3" r="1.6"/>
			<circle class="st10" cx="24.9" cy="30" r="1.6"/>
			<circle class="st10" cx="31.6" cy="36.8" r="1.6"/>
			<circle class="st10" cx="38.3" cy="43.5" r="1.6"/>
			<circle class="st10" cx="45.1" cy="50.3" r="1.6"/>
			<circle class="st10" cx="51.8" cy="57" r="1.6"/>
			<circle class="st10" cx="58.6" cy="63.7" r="1.6"/>
			<circle class="st10" cx="4.6" cy="23.3" r="1.6"/>
			<circle class="st10" cx="11.4" cy="30" r="1.6"/>
			<circle class="st10" cx="18.1" cy="36.8" r="1.6"/>
			<circle class="st10" cx="24.9" cy="43.5" r="1.6"/>
			<circle class="st10" cx="31.6" cy="50.3" r="1.6"/>
			<circle class="st10" cx="38.3" cy="57" r="1.6"/>
			<circle class="st10" cx="45.1" cy="63.7" r="1.6"/>
			<circle class="st10" cx="51.8" cy="70.5" r="1.6"/>
			<circle class="st10" cx="4.6" cy="36.8" r="1.6"/>
			<circle class="st10" cx="11.4" cy="43.5" r="1.6"/>
			<circle class="st10" cx="18.1" cy="50.3" r="1.6"/>
			<circle class="st10" cx="24.9" cy="57" r="1.6"/>
			<circle class="st10" cx="31.6" cy="63.7" r="1.6"/>
			<circle class="st10" cx="38.3" cy="70.5" r="1.6"/>
			<circle class="st10" cx="45.1" cy="77.2" r="1.6"/>
			<circle class="st10" cx="4.6" cy="50.3" r="1.6"/>
			<circle class="st10" cx="11.4" cy="57" r="1.6"/>
			<circle class="st10" cx="18.1" cy="63.7" r="1.6"/>
			<circle class="st10" cx="24.9" cy="70.5" r="1.6"/>
			<circle class="st10" cx="31.6" cy="77.2" r="1.6"/>
			<circle class="st10" cx="38.3" cy="84" r="1.6"/>
			<circle class="st10" cx="4.6" cy="63.7" r="1.6"/>
			<circle class="st10" cx="11.4" cy="70.5" r="1.6"/>
			<circle class="st10" cx="18.1" cy="77.2" r="1.6"/>
			<circle class="st10" cx="24.9" cy="84" r="1.6"/>
			<circle class="st10" cx="31.6" cy="90.7" r="1.6"/>
			<circle class="st10" cx="4.6" cy="77.2" r="1.6"/>
			<circle class="st10" cx="11.4" cy="84" r="1.6"/>
			<circle class="st10" cx="18.1" cy="90.7" r="1.6"/>
			<circle class="st10" cx="24.9" cy="97.4" r="1.6"/>
			<circle class="st10" cx="4.6" cy="90.7" r="1.6"/>
			<circle class="st10" cx="11.4" cy="97.4" r="1.6"/>
			<circle class="st10" cx="18.1" cy="104.2" r="1.6"/>
			<circle class="st10" cx="4.6" cy="104.2" r="1.6"/>
			<circle class="st10" cx="11.4" cy="110.9" r="1.6"/>
			<circle class="st10" cx="4.6" cy="117.6" r="1.6"/>
			<circle class="st10" cx="65.3" cy="70.5" r="1.6"/>
			<circle class="st10" cx="72" cy="77.2" r="1.6"/>
			<circle class="st10" cx="78.8" cy="84" r="1.6"/>
			<circle class="st10" cx="85.5" cy="90.7" r="1.6"/>
			<circle class="st10" cx="92.2" cy="97.4" r="1.6"/>
			<circle class="st10" cx="99" cy="104.2" r="1.6"/>
			<circle class="st10" cx="105.7" cy="110.9" r="1.6"/>
			<circle class="st10" cx="112.5" cy="117.6" r="1.6"/>
			<circle class="st10" cx="119.2" cy="124.4" r="1.6"/>
			<circle class="st10" cx="58.6" cy="77.2" r="1.6"/>
			<circle class="st10" cx="65.3" cy="84" r="1.6"/>
			<circle class="st10" cx="72" cy="90.7" r="1.6"/>
			<circle class="st10" cx="78.8" cy="97.4" r="1.6"/>
			<circle class="st10" cx="85.5" cy="104.2" r="1.6"/>
			<circle class="st10" cx="92.2" cy="110.9" r="1.6"/>
			<circle class="st10" cx="99" cy="117.6" r="1.6"/>
			<circle class="st10" cx="105.7" cy="124.4" r="1.6"/>
			<circle class="st10" cx="112.5" cy="131.1" r="1.6"/>
			<circle class="st10" cx="51.8" cy="84" r="1.6"/>
			<circle class="st10" cx="58.6" cy="90.7" r="1.6"/>
			<circle class="st10" cx="65.3" cy="97.4" r="1.6"/>
			<circle class="st10" cx="72" cy="104.2" r="1.6"/>
			<circle class="st10" cx="78.8" cy="110.9" r="1.6"/>
			<circle class="st10" cx="85.5" cy="117.6" r="1.6"/>
			<circle class="st10" cx="92.2" cy="124.4" r="1.6"/>
			<circle class="st10" cx="99" cy="131.1" r="1.6"/>
			<circle class="st10" cx="105.7" cy="137.9" r="1.6"/>
			<circle class="st10" cx="45.1" cy="90.7" r="1.6"/>
			<circle class="st10" cx="51.8" cy="97.4" r="1.6"/>
			<circle class="st10" cx="58.6" cy="104.2" r="1.6"/>
			<circle class="st10" cx="65.3" cy="110.9" r="1.6"/>
			<circle class="st10" cx="72" cy="117.6" r="1.6"/>
			<circle class="st10" cx="78.8" cy="124.4" r="1.6"/>
			<circle class="st10" cx="85.5" cy="131.1" r="1.6"/>
			<circle class="st10" cx="92.2" cy="137.9" r="1.6"/>
			<circle class="st10" cx="99" cy="144.6" r="1.6"/>
			<circle class="st10" cx="38.3" cy="97.4" r="1.6"/>
			<circle class="st10" cx="45.1" cy="104.2" r="1.6"/>
			<circle class="st10" cx="51.8" cy="110.9" r="1.6"/>
			<circle class="st10" cx="58.6" cy="117.6" r="1.6"/>
			<circle class="st10" cx="65.3" cy="124.4" r="1.6"/>
			<circle class="st10" cx="72" cy="131.1" r="1.6"/>
			<circle class="st10" cx="78.8" cy="137.9" r="1.6"/>
			<circle class="st10" cx="85.5" cy="144.6" r="1.6"/>
			<circle class="st10" cx="92.2" cy="151.3" r="1.6"/>
			<circle class="st10" cx="31.6" cy="104.2" r="1.6"/>
			<circle class="st10" cx="38.3" cy="110.9" r="1.6"/>
			<circle class="st10" cx="45.1" cy="117.6" r="1.6"/>
			<circle class="st10" cx="51.8" cy="124.4" r="1.6"/>
			<circle class="st10" cx="58.6" cy="131.1" r="1.6"/>
			<circle class="st10" cx="65.3" cy="137.9" r="1.6"/>
			<circle class="st10" cx="72" cy="144.6" r="1.6"/>
			<circle class="st10" cx="78.8" cy="151.3" r="1.6"/>
			<circle class="st10" cx="85.5" cy="158.1" r="1.6"/>
			<circle class="st10" cx="24.9" cy="110.9" r="1.6"/>
			<circle class="st10" cx="31.6" cy="117.6" r="1.6"/>
			<circle class="st10" cx="38.3" cy="124.4" r="1.6"/>
			<circle class="st10" cx="45.1" cy="131.1" r="1.6"/>
			<circle class="st10" cx="51.8" cy="137.9" r="1.6"/>
			<circle class="st10" cx="58.6" cy="144.6" r="1.6"/>
			<circle class="st10" cx="65.3" cy="151.3" r="1.6"/>
			<circle class="st10" cx="72" cy="158.1" r="1.6"/>
			<circle class="st10" cx="78.8" cy="164.8" r="1.6"/>
			<circle class="st10" cx="18.1" cy="117.6" r="1.6"/>
			<circle class="st10" cx="24.9" cy="124.4" r="1.6"/>
			<circle class="st10" cx="31.6" cy="131.1" r="1.6"/>
			<circle class="st10" cx="38.3" cy="137.9" r="1.6"/>
			<circle class="st10" cx="45.1" cy="144.6" r="1.6"/>
			<circle class="st10" cx="51.8" cy="151.3" r="1.6"/>
			<circle class="st10" cx="58.6" cy="158.1" r="1.6"/>
			<circle class="st10" cx="65.3" cy="164.8" r="1.6"/>
			<circle class="st10" cx="72" cy="171.6" r="1.6"/>
			<circle class="st10" cx="11.4" cy="124.4" r="1.6"/>
			<circle class="st10" cx="18.1" cy="131.1" r="1.6"/>
			<circle class="st10" cx="24.9" cy="137.9" r="1.6"/>
			<circle class="st10" cx="31.6" cy="144.6" r="1.6"/>
			<circle class="st10" cx="38.3" cy="151.3" r="1.6"/>
			<circle class="st10" cx="45.1" cy="158.1" r="1.6"/>
			<circle class="st10" cx="51.8" cy="164.8" r="1.6"/>
			<circle class="st10" cx="58.6" cy="171.6" r="1.6"/>
			<circle class="st10" cx="65.3" cy="178.3" r="1.6"/>
			<circle class="st10" cx="4.6" cy="131.1" r="1.6"/>
			<circle class="st10" cx="11.4" cy="137.9" r="1.6"/>
			<circle class="st10" cx="18.1" cy="144.6" r="1.6"/>
			<circle class="st10" cx="24.9" cy="151.3" r="1.6"/>
			<circle class="st10" cx="31.6" cy="158.1" r="1.6"/>
			<circle class="st10" cx="38.3" cy="164.8" r="1.6"/>
			<circle class="st10" cx="45.1" cy="171.6" r="1.6"/>
			<circle class="st10" cx="51.8" cy="178.3" r="1.6"/>
			<circle class="st10" cx="58.6" cy="185" r="1.6"/>
			<circle class="st10" cx="4.6" cy="144.6" r="1.6"/>
			<circle class="st10" cx="11.4" cy="151.3" r="1.6"/>
			<circle class="st10" cx="18.1" cy="158.1" r="1.6"/>
			<circle class="st10" cx="24.9" cy="164.8" r="1.6"/>
			<circle class="st10" cx="31.6" cy="171.6" r="1.6"/>
			<circle class="st10" cx="38.3" cy="178.3" r="1.6"/>
			<circle class="st10" cx="45.1" cy="185" r="1.6"/>
			<circle class="st10" cx="51.8" cy="191.8" r="1.6"/>
			<circle class="st10" cx="4.6" cy="158.1" r="1.6"/>
			<circle class="st10" cx="11.4" cy="164.8" r="1.6"/>
			<circle class="st10" cx="18.1" cy="171.6" r="1.6"/>
			<circle class="st10" cx="24.9" cy="178.3" r="1.6"/>
			<circle class="st10" cx="31.6" cy="185" r="1.6"/>
			<circle class="st10" cx="38.3" cy="191.8" r="1.6"/>
			<circle class="st10" cx="45.1" cy="198.5" r="1.6"/>
			<circle class="st10" cx="4.6" cy="171.6" r="1.6"/>
			<circle class="st10" cx="11.4" cy="178.3" r="1.6"/>
			<circle class="st10" cx="18.1" cy="185" r="1.6"/>
			<circle class="st10" cx="24.9" cy="191.8" r="1.6"/>
			<circle class="st10" cx="31.6" cy="198.5" r="1.6"/>
			<circle class="st10" cx="4.6" cy="185" r="1.6"/>
			<circle class="st10" cx="11.4" cy="191.8" r="1.6"/>
			<circle class="st10" cx="18.1" cy="198.5" r="1.6"/>
			<circle class="st10" cx="125.9" cy="131.1" r="1.6"/>
			<circle class="st10" cx="119.2" cy="137.9" r="1.6"/>
			<circle class="st10" cx="112.5" cy="144.6" r="1.6"/>
			<circle class="st10" cx="105.7" cy="151.3" r="1.6"/>
			<circle class="st10" cx="99" cy="158.1" r="1.6"/>
			<circle class="st10" cx="92.2" cy="164.8" r="1.6"/>
			<circle class="st10" cx="85.5" cy="171.6" r="1.6"/>
			<circle class="st10" cx="78.8" cy="178.3" r="1.6"/>
			<circle class="st10" cx="72" cy="185" r="1.6"/>
			<circle class="st10" cx="65.3" cy="191.8" r="1.6"/>
			<circle class="st10" cx="58.6" cy="198.5" r="1.6"/>
			<circle class="st10" cx="4.6" cy="198.5" r="1.6"/>
			<g>
				<path class="st9" d="M-2.1,3.5l-7.2-7.2l7.2-7.2l7.2,7.2L-2.1,3.5z M-8.4-3.7l6.3,6.3l6.3-6.3l-6.3-6.3L-8.4-3.7z"/>
			</g>
		</g>
	</g>
</g>
</svg>
