<?xml version="1.0" encoding="utf-8"?>
<!-- Generator: Adobe Illustrator 24.0.0, SVG Export Plug-In . SVG Version: 6.00 Build 0)  -->
<svg version="1.1" xmlns="http://www.w3.org/2000/svg" xmlns:xlink="http://www.w3.org/1999/xlink" x="0px" y="0px" width="150px"
	 height="200px" viewBox="0 0 150 200" style="enable-background:new 0 0 150 200;" xml:space="preserve">
<style type="text/css">
	.st0{fill:#E2D7C8;}
	.st1{fill:#EDE5DD;stroke:#C9B49F;stroke-width:0.25;stroke-miterlimit:10;}
	.st2{fill:#FFFFFF;}
	.st3{clip-path:url(#SVGID_2_);}
	.st4{fill:url(#SVGID_3_);}
	.st5{fill:#5B4F68;}
	.st6{fill:#796985;}
</style>
<g id="Warstwa_1">
</g>
<g id="Warstwa_2">
	<path class="st0" d="M145,200H5c-2.8,0-5-2.3-5-5V5c0-2.8,2.3-5,5-5h140c2.8,0,5,2.3,5,5v190C150,197.8,147.8,200,145,200z"/>
	<path class="st1" d="M141,195H9c-2.8,0-5-2.3-5-5V10c0-2.8,2.3-5,5-5h132c2.8,0,5,2.3,5,5v180C146,192.8,143.8,195,141,195z"/>
	<g>
		<defs>
			<rect id="SVGID_1_" x="7" y="8" width="136" height="184"/>
		</defs>
		<clipPath id="SVGID_2_">
			<use xlink:href="#SVGID_1_"  style="overflow:visible;"/>
		</clipPath>
		<g class="st3">
			
				<image style="overflow:visible;opacity:0.5;" width="142" height="190" xlink:href="2FF1C71D.png"  transform="matrix(1 0 0 1 5 6)">
			</image>
			<g>
				<linearGradient id="SVGID_3_" gradientUnits="userSpaceOnUse" x1="138.1959" y1="191.1695" x2="12.368" y2="9.644">
					<stop  offset="0" style="stop-color:#4B2D63"/>
					<stop  offset="1" style="stop-color:#513C5E"/>
				</linearGradient>
				<rect x="7" y="8" class="st4" width="136" height="184"/>
			</g>
		</g>
		<g class="st3">
			<g>
				<path class="st5" d="M-3.6,199l-7.2-7.2l7.2-7.2l7.2,7.2L-3.6,199z M-9.9,191.8l6.3,6.3l6.3-6.3l-6.3-6.3L-9.9,191.8z"/>
				<path class="st5" d="M-3.6,185.5l-7.2-7.2l7.2-7.2l7.2,7.2L-3.6,185.5z M-9.9,178.3l6.3,6.3l6.3-6.3l-6.3-6.3L-9.9,178.3z"/>
				<path class="st5" d="M3.2,192.2L-4,185l7.2-7.2l7.2,7.2L3.2,192.2z M-3.1,185l6.3,6.3l6.3-6.3l-6.3-6.3L-3.1,185z"/>
				<path class="st5" d="M3.2,178.8l-7.2-7.2l7.2-7.2l7.2,7.2L3.2,178.8z M-3.1,171.6l6.3,6.3l6.3-6.3l-6.3-6.3L-3.1,171.6z"/>
				<path class="st5" d="M9.9,185.5l-7.2-7.2l7.2-7.2l7.2,7.2L9.9,185.5z M3.6,178.3l6.3,6.3l6.3-6.3L9.9,172L3.6,178.3z"/>
				<path class="st5" d="M9.9,172l-7.2-7.2l7.2-7.2l7.2,7.2L9.9,172z M3.6,164.8l6.3,6.3l6.3-6.3l-6.3-6.3L3.6,164.8z"/>
				<path class="st5" d="M16.6,178.8l-7.2-7.2l7.2-7.2l7.2,7.2L16.6,178.8z M10.4,171.6l6.3,6.3l6.3-6.3l-6.3-6.3L10.4,171.6z"/>
				<path class="st5" d="M16.6,165.3l-7.2-7.2l7.2-7.2l7.2,7.2L16.6,165.3z M10.4,158.1l6.3,6.3l6.3-6.3l-6.3-6.3L10.4,158.1z"/>
				<path class="st5" d="M23.4,172l-7.2-7.2l7.2-7.2l7.2,7.2L23.4,172z M17.1,164.8l6.3,6.3l6.3-6.3l-6.3-6.3L17.1,164.8z"/>
				<path class="st5" d="M23.4,158.5l-7.2-7.2l7.2-7.2l7.2,7.2L23.4,158.5z M17.1,151.3l6.3,6.3l6.3-6.3l-6.3-6.3L17.1,151.3z"/>
				<path class="st5" d="M30.1,165.3l-7.2-7.2l7.2-7.2l7.2,7.2L30.1,165.3z M23.8,158.1l6.3,6.3l6.3-6.3l-6.3-6.3L23.8,158.1z"/>
				<path class="st5" d="M30.1,151.8l-7.2-7.2l7.2-7.2l7.2,7.2L30.1,151.8z M23.8,144.6l6.3,6.3l6.3-6.3l-6.3-6.3L23.8,144.6z"/>
				<path class="st5" d="M36.9,158.5l-7.2-7.2l7.2-7.2l7.2,7.2L36.9,158.5z M30.6,151.3l6.3,6.3l6.3-6.3l-6.3-6.3L30.6,151.3z"/>
				<path class="st5" d="M36.9,145.1l-7.2-7.2l7.2-7.2l7.2,7.2L36.9,145.1z M30.6,137.9l6.3,6.3l6.3-6.3l-6.3-6.3L30.6,137.9z"/>
				<path class="st5" d="M43.6,151.8l-7.2-7.2l7.2-7.2l7.2,7.2L43.6,151.8z M37.3,144.6l6.3,6.3l6.3-6.3l-6.3-6.3L37.3,144.6z"/>
				<path class="st5" d="M43.6,138.3l-7.2-7.2l7.2-7.2l7.2,7.2L43.6,138.3z M37.3,131.1l6.3,6.3l6.3-6.3l-6.3-6.3L37.3,131.1z"/>
				<path class="st5" d="M50.3,145.1l-7.2-7.2l7.2-7.2l7.2,7.2L50.3,145.1z M44,137.9l6.3,6.3l6.3-6.3l-6.3-6.3L44,137.9z"/>
				<path class="st5" d="M50.3,131.6l-7.2-7.2l7.2-7.2l7.2,7.2L50.3,131.6z M44,124.4l6.3,6.3l6.3-6.3l-6.3-6.3L44,124.4z"/>
				<path class="st5" d="M57.1,138.3l-7.2-7.2l7.2-7.2l7.2,7.2L57.1,138.3z M50.8,131.1l6.3,6.3l6.3-6.3l-6.3-6.3L50.8,131.1z"/>
				<path class="st5" d="M57.1,124.8l-7.2-7.2l7.2-7.2l7.2,7.2L57.1,124.8z M50.8,117.6l6.3,6.3l6.3-6.3l-6.3-6.3L50.8,117.6z"/>
				<path class="st5" d="M63.8,131.6l-7.2-7.2l7.2-7.2l7.2,7.2L63.8,131.6z M57.5,124.4l6.3,6.3l6.3-6.3l-6.3-6.3L57.5,124.4z"/>
				<path class="st5" d="M63.8,118.1l-7.2-7.2l7.2-7.2l7.2,7.2L63.8,118.1z M57.5,110.9l6.3,6.3l6.3-6.3l-6.3-6.3L57.5,110.9z"/>
				<path class="st5" d="M70.6,124.8l-7.2-7.2l7.2-7.2l7.2,7.2L70.6,124.8z M64.3,117.6l6.3,6.3l6.3-6.3l-6.3-6.3L64.3,117.6z"/>
				<path class="st5" d="M70.6,111.4l-7.2-7.2l7.2-7.2l7.2,7.2L70.6,111.4z M64.3,104.2l6.3,6.3l6.3-6.3l-6.3-6.3L64.3,104.2z"/>
				<path class="st5" d="M77.3,118.1l-7.2-7.2l7.2-7.2l7.2,7.2L77.3,118.1z M71,110.9l6.3,6.3l6.3-6.3l-6.3-6.3L71,110.9z"/>
				<path class="st5" d="M-3.6,212.4l-7.2-7.2l7.2-7.2l7.2,7.2L-3.6,212.4z M-9.9,205.3l6.3,6.3l6.3-6.3l-6.3-6.3L-9.9,205.3z"/>
				<path class="st5" d="M3.2,205.7l-7.2-7.2l7.2-7.2l7.2,7.2L3.2,205.7z M-3.1,198.5l6.3,6.3l6.3-6.3l-6.3-6.3L-3.1,198.5z"/>
				<path class="st5" d="M9.9,212.4l-7.2-7.2l7.2-7.2l7.2,7.2L9.9,212.4z M3.6,205.3l6.3,6.3l6.3-6.3L9.9,199L3.6,205.3z"/>
				<path class="st5" d="M9.9,199l-7.2-7.2l7.2-7.2l7.2,7.2L9.9,199z M3.6,191.8l6.3,6.3l6.3-6.3l-6.3-6.3L3.6,191.8z"/>
				<path class="st5" d="M16.6,205.7l-7.2-7.2l7.2-7.2l7.2,7.2L16.6,205.7z M10.4,198.5l6.3,6.3l6.3-6.3l-6.3-6.3L10.4,198.5z"/>
				<path class="st5" d="M16.6,192.2L9.5,185l7.2-7.2l7.2,7.2L16.6,192.2z M10.4,185l6.3,6.3l6.3-6.3l-6.3-6.3L10.4,185z"/>
				<path class="st5" d="M23.4,199l-7.2-7.2l7.2-7.2l7.2,7.2L23.4,199z M17.1,191.8l6.3,6.3l6.3-6.3l-6.3-6.3L17.1,191.8z"/>
				<path class="st5" d="M23.4,185.5l-7.2-7.2l7.2-7.2l7.2,7.2L23.4,185.5z M17.1,178.3l6.3,6.3l6.3-6.3l-6.3-6.3L17.1,178.3z"/>
				<path class="st5" d="M30.1,192.2l-7.2-7.2l7.2-7.2l7.2,7.2L30.1,192.2z M23.8,185l6.3,6.3l6.3-6.3l-6.3-6.3L23.8,185z"/>
				<path class="st5" d="M30.1,178.8l-7.2-7.2l7.2-7.2l7.2,7.2L30.1,178.8z M23.8,171.6l6.3,6.3l6.3-6.3l-6.3-6.3L23.8,171.6z"/>
				<path class="st5" d="M36.9,185.5l-7.2-7.2l7.2-7.2l7.2,7.2L36.9,185.5z M30.6,178.3l6.3,6.3l6.3-6.3l-6.3-6.3L30.6,178.3z"/>
				<path class="st5" d="M36.9,172l-7.2-7.2l7.2-7.2l7.2,7.2L36.9,172z M30.6,164.8l6.3,6.3l6.3-6.3l-6.3-6.3L30.6,164.8z"/>
				<path class="st5" d="M43.6,178.8l-7.2-7.2l7.2-7.2l7.2,7.2L43.6,178.8z M37.3,171.6l6.3,6.3l6.3-6.3l-6.3-6.3L37.3,171.6z"/>
				<path class="st5" d="M43.6,165.3l-7.2-7.2l7.2-7.2l7.2,7.2L43.6,165.3z M37.3,158.1l6.3,6.3l6.3-6.3l-6.3-6.3L37.3,158.1z"/>
				<path class="st5" d="M50.3,172l-7.2-7.2l7.2-7.2l7.2,7.2L50.3,172z M44,164.8l6.3,6.3l6.3-6.3l-6.3-6.3L44,164.8z"/>
				<path class="st5" d="M50.3,158.5l-7.2-7.2l7.2-7.2l7.2,7.2L50.3,158.5z M44,151.3l6.3,6.3l6.3-6.3l-6.3-6.3L44,151.3z"/>
				<path class="st5" d="M57.1,165.3l-7.2-7.2l7.2-7.2l7.2,7.2L57.1,165.3z M50.8,158.1l6.3,6.3l6.3-6.3l-6.3-6.3L50.8,158.1z"/>
				<path class="st5" d="M57.1,151.8l-7.2-7.2l7.2-7.2l7.2,7.2L57.1,151.8z M50.8,144.6l6.3,6.3l6.3-6.3l-6.3-6.3L50.8,144.6z"/>
				<path class="st5" d="M63.8,158.5l-7.2-7.2l7.2-7.2l7.2,7.2L63.8,158.5z M57.5,151.3l6.3,6.3l6.3-6.3l-6.3-6.3L57.5,151.3z"/>
				<path class="st5" d="M63.8,145.1l-7.2-7.2l7.2-7.2l7.2,7.2L63.8,145.1z M57.5,137.9l6.3,6.3l6.3-6.3l-6.3-6.3L57.5,137.9z"/>
				<path class="st5" d="M70.6,151.8l-7.2-7.2l7.2-7.2l7.2,7.2L70.6,151.8z M64.3,144.6l6.3,6.3l6.3-6.3l-6.3-6.3L64.3,144.6z"/>
				<path class="st5" d="M70.6,138.3l-7.2-7.2l7.2-7.2l7.2,7.2L70.6,138.3z M64.3,131.1l6.3,6.3l6.3-6.3l-6.3-6.3L64.3,131.1z"/>
				<path class="st5" d="M77.3,145.1l-7.2-7.2l7.2-7.2l7.2,7.2L77.3,145.1z M71,137.9l6.3,6.3l6.3-6.3l-6.3-6.3L71,137.9z"/>
				<path class="st5" d="M77.3,131.6l-7.2-7.2l7.2-7.2l7.2,7.2L77.3,131.6z M71,124.4l6.3,6.3l6.3-6.3l-6.3-6.3L71,124.4z"/>
				<path class="st5" d="M84,138.3l-7.2-7.2l7.2-7.2l7.2,7.2L84,138.3z M77.7,131.1l6.3,6.3l6.3-6.3l-6.3-6.3L77.7,131.1z"/>
				<path class="st5" d="M84,124.8l-7.2-7.2l7.2-7.2l7.2,7.2L84,124.8z M77.7,117.6l6.3,6.3l6.3-6.3l-6.3-6.3L77.7,117.6z"/>
				<path class="st5" d="M90.8,131.6l-7.2-7.2l7.2-7.2l7.2,7.2L90.8,131.6z M84.5,124.4l6.3,6.3l6.3-6.3l-6.3-6.3L84.5,124.4z"/>
				<path class="st5" d="M23.4,212.4l-7.2-7.2l7.2-7.2l7.2,7.2L23.4,212.4z M17.1,205.3l6.3,6.3l6.3-6.3l-6.3-6.3L17.1,205.3z"/>
				<path class="st5" d="M30.1,205.7l-7.2-7.2l7.2-7.2l7.2,7.2L30.1,205.7z M23.8,198.5l6.3,6.3l6.3-6.3l-6.3-6.3L23.8,198.5z"/>
				<path class="st5" d="M36.9,212.4l-7.2-7.2l7.2-7.2l7.2,7.2L36.9,212.4z M30.6,205.3l6.3,6.3l6.3-6.3l-6.3-6.3L30.6,205.3z"/>
				<path class="st5" d="M36.9,199l-7.2-7.2l7.2-7.2l7.2,7.2L36.9,199z M30.6,191.8l6.3,6.3l6.3-6.3l-6.3-6.3L30.6,191.8z"/>
				<path class="st5" d="M43.6,205.7l-7.2-7.2l7.2-7.2l7.2,7.2L43.6,205.7z M37.3,198.5l6.3,6.3l6.3-6.3l-6.3-6.3L37.3,198.5z"/>
				<path class="st5" d="M43.6,192.2l-7.2-7.2l7.2-7.2l7.2,7.2L43.6,192.2z M37.3,185l6.3,6.3l6.3-6.3l-6.3-6.3L37.3,185z"/>
				<path class="st5" d="M50.3,199l-7.2-7.2l7.2-7.2l7.2,7.2L50.3,199z M44,191.8l6.3,6.3l6.3-6.3l-6.3-6.3L44,191.8z"/>
				<path class="st5" d="M50.3,185.5l-7.2-7.2l7.2-7.2l7.2,7.2L50.3,185.5z M44,178.3l6.3,6.3l6.3-6.3l-6.3-6.3L44,178.3z"/>
				<path class="st5" d="M57.1,192.2l-7.2-7.2l7.2-7.2l7.2,7.2L57.1,192.2z M50.8,185l6.3,6.3l6.3-6.3l-6.3-6.3L50.8,185z"/>
				<path class="st5" d="M57.1,178.8l-7.2-7.2l7.2-7.2l7.2,7.2L57.1,178.8z M50.8,171.6l6.3,6.3l6.3-6.3l-6.3-6.3L50.8,171.6z"/>
				<path class="st5" d="M63.8,185.5l-7.2-7.2l7.2-7.2l7.2,7.2L63.8,185.5z M57.5,178.3l6.3,6.3l6.3-6.3l-6.3-6.3L57.5,178.3z"/>
				<path class="st5" d="M63.8,172l-7.2-7.2l7.2-7.2l7.2,7.2L63.8,172z M57.5,164.8l6.3,6.3l6.3-6.3l-6.3-6.3L57.5,164.8z"/>
				<path class="st5" d="M70.6,178.8l-7.2-7.2l7.2-7.2l7.2,7.2L70.6,178.8z M64.3,171.6l6.3,6.3l6.3-6.3l-6.3-6.3L64.3,171.6z"/>
				<path class="st5" d="M70.6,165.3l-7.2-7.2l7.2-7.2l7.2,7.2L70.6,165.3z M64.3,158.1l6.3,6.3l6.3-6.3l-6.3-6.3L64.3,158.1z"/>
				<path class="st5" d="M77.3,172l-7.2-7.2l7.2-7.2l7.2,7.2L77.3,172z M71,164.8l6.3,6.3l6.3-6.3l-6.3-6.3L71,164.8z"/>
				<path class="st5" d="M77.3,158.5l-7.2-7.2l7.2-7.2l7.2,7.2L77.3,158.5z M71,151.3l6.3,6.3l6.3-6.3l-6.3-6.3L71,151.3z"/>
				<path class="st5" d="M84,165.3l-7.2-7.2l7.2-7.2l7.2,7.2L84,165.3z M77.7,158.1l6.3,6.3l6.3-6.3l-6.3-6.3L77.7,158.1z"/>
				<path class="st5" d="M84,151.8l-7.2-7.2l7.2-7.2l7.2,7.2L84,151.8z M77.7,144.6l6.3,6.3l6.3-6.3l-6.3-6.3L77.7,144.6z"/>
				<path class="st5" d="M90.8,158.5l-7.2-7.2l7.2-7.2l7.2,7.2L90.8,158.5z M84.5,151.3l6.3,6.3l6.3-6.3l-6.3-6.3L84.5,151.3z"/>
				<path class="st5" d="M90.8,145.1l-7.2-7.2l7.2-7.2l7.2,7.2L90.8,145.1z M84.5,137.9l6.3,6.3l6.3-6.3l-6.3-6.3L84.5,137.9z"/>
				<path class="st5" d="M97.5,151.8l-7.2-7.2l7.2-7.2l7.2,7.2L97.5,151.8z M91.2,144.6l6.3,6.3l6.3-6.3l-6.3-6.3L91.2,144.6z"/>
				<path class="st5" d="M97.5,138.3l-7.2-7.2l7.2-7.2l7.2,7.2L97.5,138.3z M91.2,131.1l6.3,6.3l6.3-6.3l-6.3-6.3L91.2,131.1z"/>
				<path class="st5" d="M104.3,145.1l-7.2-7.2l7.2-7.2l7.2,7.2L104.3,145.1z M98,137.9l6.3,6.3l6.3-6.3l-6.3-6.3L98,137.9z"/>
				<path class="st5" d="M50.3,212.4l-7.2-7.2l7.2-7.2l7.2,7.2L50.3,212.4z M44,205.3l6.3,6.3l6.3-6.3l-6.3-6.3L44,205.3z"/>
				<path class="st5" d="M57.1,205.7l-7.2-7.2l7.2-7.2l7.2,7.2L57.1,205.7z M50.8,198.5l6.3,6.3l6.3-6.3l-6.3-6.3L50.8,198.5z"/>
				<path class="st5" d="M63.8,212.4l-7.2-7.2l7.2-7.2l7.2,7.2L63.8,212.4z M57.5,205.3l6.3,6.3l6.3-6.3l-6.3-6.3L57.5,205.3z"/>
				<path class="st5" d="M63.8,199l-7.2-7.2l7.2-7.2l7.2,7.2L63.8,199z M57.5,191.8l6.3,6.3l6.3-6.3l-6.3-6.3L57.5,191.8z"/>
				<path class="st5" d="M70.6,205.7l-7.2-7.2l7.2-7.2l7.2,7.2L70.6,205.7z M64.3,198.5l6.3,6.3l6.3-6.3l-6.3-6.3L64.3,198.5z"/>
				<path class="st5" d="M70.6,192.2l-7.2-7.2l7.2-7.2l7.2,7.2L70.6,192.2z M64.3,185l6.3,6.3l6.3-6.3l-6.3-6.3L64.3,185z"/>
				<path class="st5" d="M77.3,199l-7.2-7.2l7.2-7.2l7.2,7.2L77.3,199z M71,191.8l6.3,6.3l6.3-6.3l-6.3-6.3L71,191.8z"/>
				<path class="st5" d="M77.3,185.5l-7.2-7.2l7.2-7.2l7.2,7.2L77.3,185.5z M71,178.3l6.3,6.3l6.3-6.3l-6.3-6.3L71,178.3z"/>
				<path class="st5" d="M84,192.2l-7.2-7.2l7.2-7.2l7.2,7.2L84,192.2z M77.7,185l6.3,6.3l6.3-6.3l-6.3-6.3L77.7,185z"/>
				<path class="st5" d="M84,178.8l-7.2-7.2l7.2-7.2l7.2,7.2L84,178.8z M77.7,171.6l6.3,6.3l6.3-6.3l-6.3-6.3L77.7,171.6z"/>
				<path class="st5" d="M90.8,185.5l-7.2-7.2l7.2-7.2l7.2,7.2L90.8,185.5z M84.5,178.3l6.3,6.3l6.3-6.3l-6.3-6.3L84.5,178.3z"/>
				<path class="st5" d="M90.8,172l-7.2-7.2l7.2-7.2l7.2,7.2L90.8,172z M84.5,164.8l6.3,6.3l6.3-6.3l-6.3-6.3L84.5,164.8z"/>
				<path class="st5" d="M97.5,178.8l-7.2-7.2l7.2-7.2l7.2,7.2L97.5,178.8z M91.2,171.6l6.3,6.3l6.3-6.3l-6.3-6.3L91.2,171.6z"/>
				<path class="st5" d="M97.5,165.3l-7.2-7.2l7.2-7.2l7.2,7.2L97.5,165.3z M91.2,158.1l6.3,6.3l6.3-6.3l-6.3-6.3L91.2,158.1z"/>
				<path class="st5" d="M104.3,172l-7.2-7.2l7.2-7.2l7.2,7.2L104.3,172z M98,164.8l6.3,6.3l6.3-6.3l-6.3-6.3L98,164.8z"/>
				<path class="st5" d="M104.3,158.5l-7.2-7.2l7.2-7.2l7.2,7.2L104.3,158.5z M98,151.3l6.3,6.3l6.3-6.3l-6.3-6.3L98,151.3z"/>
				<path class="st5" d="M111,165.3l-7.2-7.2l7.2-7.2l7.2,7.2L111,165.3z M104.7,158.1l6.3,6.3l6.3-6.3l-6.3-6.3L104.7,158.1z"/>
				<path class="st5" d="M111,151.8l-7.2-7.2l7.2-7.2l7.2,7.2L111,151.8z M104.7,144.6l6.3,6.3l6.3-6.3l-6.3-6.3L104.7,144.6z"/>
				<path class="st5" d="M117.7,158.5l-7.2-7.2l7.2-7.2l7.2,7.2L117.7,158.5z M111.4,151.3l6.3,6.3l6.3-6.3l-6.3-6.3L111.4,151.3z"
					/>
				<path class="st5" d="M77.3,212.4l-7.2-7.2l7.2-7.2l7.2,7.2L77.3,212.4z M71,205.3l6.3,6.3l6.3-6.3l-6.3-6.3L71,205.3z"/>
				<path class="st5" d="M84,205.7l-7.2-7.2l7.2-7.2l7.2,7.2L84,205.7z M77.7,198.5l6.3,6.3l6.3-6.3l-6.3-6.3L77.7,198.5z"/>
				<path class="st5" d="M90.8,212.4l-7.2-7.2l7.2-7.2l7.2,7.2L90.8,212.4z M84.5,205.3l6.3,6.3l6.3-6.3l-6.3-6.3L84.5,205.3z"/>
				<path class="st5" d="M90.8,199l-7.2-7.2l7.2-7.2l7.2,7.2L90.8,199z M84.5,191.8l6.3,6.3l6.3-6.3l-6.3-6.3L84.5,191.8z"/>
				<path class="st5" d="M97.5,205.7l-7.2-7.2l7.2-7.2l7.2,7.2L97.5,205.7z M91.2,198.5l6.3,6.3l6.3-6.3l-6.3-6.3L91.2,198.5z"/>
				<path class="st5" d="M97.5,192.2l-7.2-7.2l7.2-7.2l7.2,7.2L97.5,192.2z M91.2,185l6.3,6.3l6.3-6.3l-6.3-6.3L91.2,185z"/>
				<path class="st5" d="M104.3,199l-7.2-7.2l7.2-7.2l7.2,7.2L104.3,199z M98,191.8l6.3,6.3l6.3-6.3l-6.3-6.3L98,191.8z"/>
				<path class="st5" d="M104.3,185.5l-7.2-7.2l7.2-7.2l7.2,7.2L104.3,185.5z M98,178.3l6.3,6.3l6.3-6.3l-6.3-6.3L98,178.3z"/>
				<path class="st5" d="M111,192.2l-7.2-7.2l7.2-7.2l7.2,7.2L111,192.2z M104.7,185l6.3,6.3l6.3-6.3l-6.3-6.3L104.7,185z"/>
				<path class="st5" d="M111,178.8l-7.2-7.2l7.2-7.2l7.2,7.2L111,178.8z M104.7,171.6l6.3,6.3l6.3-6.3l-6.3-6.3L104.7,171.6z"/>
				<path class="st5" d="M117.7,185.5l-7.2-7.2l7.2-7.2l7.2,7.2L117.7,185.5z M111.4,178.3l6.3,6.3l6.3-6.3l-6.3-6.3L111.4,178.3z"
					/>
				<path class="st5" d="M117.7,172l-7.2-7.2l7.2-7.2l7.2,7.2L117.7,172z M111.4,164.8l6.3,6.3l6.3-6.3l-6.3-6.3L111.4,164.8z"/>
				<path class="st5" d="M124.5,178.8l-7.2-7.2l7.2-7.2l7.2,7.2L124.5,178.8z M118.2,171.6l6.3,6.3l6.3-6.3l-6.3-6.3L118.2,171.6z"
					/>
				<path class="st5" d="M124.5,165.3l-7.2-7.2l7.2-7.2l7.2,7.2L124.5,165.3z M118.2,158.1l6.3,6.3l6.3-6.3l-6.3-6.3L118.2,158.1z"
					/>
				<path class="st5" d="M131.2,172l-7.2-7.2l7.2-7.2l7.2,7.2L131.2,172z M124.9,164.8l6.3,6.3l6.3-6.3l-6.3-6.3L124.9,164.8z"/>
			</g>
			<g>
				<path class="st5" d="M104.3,212.4l-7.2-7.2l7.2-7.2l7.2,7.2L104.3,212.4z M98,205.3l6.3,6.3l6.3-6.3l-6.3-6.3L98,205.3z"/>
				<path class="st5" d="M111,205.7l-7.2-7.2l7.2-7.2l7.2,7.2L111,205.7z M104.7,198.5l6.3,6.3l6.3-6.3l-6.3-6.3L104.7,198.5z"/>
				<path class="st5" d="M117.7,212.4l-7.2-7.2l7.2-7.2l7.2,7.2L117.7,212.4z M111.4,205.3l6.3,6.3l6.3-6.3l-6.3-6.3L111.4,205.3z"
					/>
				<path class="st5" d="M117.7,199l-7.2-7.2l7.2-7.2l7.2,7.2L117.7,199z M111.4,191.8l6.3,6.3l6.3-6.3l-6.3-6.3L111.4,191.8z"/>
				<path class="st5" d="M124.5,205.7l-7.2-7.2l7.2-7.2l7.2,7.2L124.5,205.7z M118.2,198.5l6.3,6.3l6.3-6.3l-6.3-6.3L118.2,198.5z"
					/>
				<path class="st5" d="M124.5,192.2l-7.2-7.2l7.2-7.2l7.2,7.2L124.5,192.2z M118.2,185l6.3,6.3l6.3-6.3l-6.3-6.3L118.2,185z"/>
				<path class="st5" d="M131.2,199l-7.2-7.2l7.2-7.2l7.2,7.2L131.2,199z M124.9,191.8l6.3,6.3l6.3-6.3l-6.3-6.3L124.9,191.8z"/>
				<path class="st5" d="M131.2,185.5l-7.2-7.2l7.2-7.2l7.2,7.2L131.2,185.5z M124.9,178.3l6.3,6.3l6.3-6.3l-6.3-6.3L124.9,178.3z"
					/>
				<path class="st5" d="M137.9,192.2l-7.2-7.2l7.2-7.2l7.2,7.2L137.9,192.2z M131.7,185l6.3,6.3l6.3-6.3l-6.3-6.3L131.7,185z"/>
				<path class="st5" d="M137.9,178.8l-7.2-7.2l7.2-7.2l7.2,7.2L137.9,178.8z M131.7,171.6l6.3,6.3l6.3-6.3l-6.3-6.3L131.7,171.6z"
					/>
				<path class="st5" d="M144.7,185.5l-7.2-7.2l7.2-7.2l7.2,7.2L144.7,185.5z M138.4,178.3l6.3,6.3l6.3-6.3l-6.3-6.3L138.4,178.3z"
					/>
				<path class="st5" d="M131.2,212.4l-7.2-7.2l7.2-7.2l7.2,7.2L131.2,212.4z M124.9,205.3l6.3,6.3l6.3-6.3l-6.3-6.3L124.9,205.3z"
					/>
				<path class="st5" d="M137.9,205.7l-7.2-7.2l7.2-7.2l7.2,7.2L137.9,205.7z M131.7,198.5l6.3,6.3l6.3-6.3l-6.3-6.3L131.7,198.5z"
					/>
				<path class="st5" d="M144.7,212.4l-7.2-7.2l7.2-7.2l7.2,7.2L144.7,212.4z M138.4,205.3l6.3,6.3l6.3-6.3l-6.3-6.3L138.4,205.3z"
					/>
				<path class="st5" d="M144.7,199l-7.2-7.2l7.2-7.2l7.2,7.2L144.7,199z M138.4,191.8l6.3,6.3l6.3-6.3l-6.3-6.3L138.4,191.8z"/>
				<path class="st5" d="M151.4,205.7l-7.2-7.2l7.2-7.2l7.2,7.2L151.4,205.7z M145.1,198.5l6.3,6.3l6.3-6.3l-6.3-6.3L145.1,198.5z"
					/>
				<path class="st5" d="M151.4,192.2l-7.2-7.2l7.2-7.2l7.2,7.2L151.4,192.2z M145.1,185l6.3,6.3l6.3-6.3l-6.3-6.3L145.1,185z"/>
			</g>
			<circle class="st6" cx="70.6" cy="110.9" r="1.6"/>
			<circle class="st6" cx="77.3" cy="117.6" r="1.6"/>
			<circle class="st6" cx="84" cy="124.4" r="1.6"/>
			<circle class="st6" cx="90.8" cy="131.1" r="1.6"/>
			<circle class="st6" cx="97.5" cy="137.9" r="1.6"/>
			<circle class="st6" cx="104.3" cy="144.6" r="1.6"/>
			<circle class="st6" cx="111" cy="151.3" r="1.6"/>
			<circle class="st6" cx="117.7" cy="158.1" r="1.6"/>
			<circle class="st6" cx="124.5" cy="164.8" r="1.6"/>
			<circle class="st6" cx="63.8" cy="117.6" r="1.6"/>
			<circle class="st6" cx="70.6" cy="124.4" r="1.6"/>
			<circle class="st6" cx="77.3" cy="131.1" r="1.6"/>
			<circle class="st6" cx="84" cy="137.9" r="1.6"/>
			<circle class="st6" cx="90.8" cy="144.6" r="1.6"/>
			<circle class="st6" cx="97.5" cy="151.3" r="1.6"/>
			<circle class="st6" cx="104.3" cy="158.1" r="1.6"/>
			<circle class="st6" cx="111" cy="164.8" r="1.6"/>
			<circle class="st6" cx="117.7" cy="171.6" r="1.6"/>
			<circle class="st6" cx="57.1" cy="124.4" r="1.6"/>
			<circle class="st6" cx="63.8" cy="131.1" r="1.6"/>
			<circle class="st6" cx="70.6" cy="137.9" r="1.6"/>
			<circle class="st6" cx="77.3" cy="144.6" r="1.6"/>
			<circle class="st6" cx="84" cy="151.3" r="1.6"/>
			<circle class="st6" cx="90.8" cy="158.1" r="1.6"/>
			<circle class="st6" cx="97.5" cy="164.8" r="1.6"/>
			<circle class="st6" cx="104.3" cy="171.6" r="1.6"/>
			<circle class="st6" cx="111" cy="178.3" r="1.6"/>
			<circle class="st6" cx="50.3" cy="131.1" r="1.6"/>
			<circle class="st6" cx="57.1" cy="137.9" r="1.6"/>
			<circle class="st6" cx="63.8" cy="144.6" r="1.6"/>
			<circle class="st6" cx="70.6" cy="151.3" r="1.6"/>
			<circle class="st6" cx="77.3" cy="158.1" r="1.6"/>
			<circle class="st6" cx="84" cy="164.8" r="1.6"/>
			<circle class="st6" cx="90.8" cy="171.6" r="1.6"/>
			<circle class="st6" cx="97.5" cy="178.3" r="1.6"/>
			<circle class="st6" cx="104.3" cy="185" r="1.6"/>
			<circle class="st6" cx="43.6" cy="137.9" r="1.6"/>
			<circle class="st6" cx="50.3" cy="144.6" r="1.6"/>
			<circle class="st6" cx="57.1" cy="151.3" r="1.6"/>
			<circle class="st6" cx="63.8" cy="158.1" r="1.6"/>
			<circle class="st6" cx="70.6" cy="164.8" r="1.6"/>
			<circle class="st6" cx="77.3" cy="171.6" r="1.6"/>
			<circle class="st6" cx="84" cy="178.3" r="1.6"/>
			<circle class="st6" cx="90.8" cy="185" r="1.6"/>
			<circle class="st6" cx="97.5" cy="191.8" r="1.6"/>
			<circle class="st6" cx="36.9" cy="144.6" r="1.6"/>
			<circle class="st6" cx="43.6" cy="151.3" r="1.6"/>
			<circle class="st6" cx="50.3" cy="158.1" r="1.6"/>
			<circle class="st6" cx="57.1" cy="164.8" r="1.6"/>
			<circle class="st6" cx="63.8" cy="171.6" r="1.6"/>
			<circle class="st6" cx="70.6" cy="178.3" r="1.6"/>
			<circle class="st6" cx="77.3" cy="185" r="1.6"/>
			<circle class="st6" cx="84" cy="191.8" r="1.6"/>
			<circle class="st6" cx="90.8" cy="198.5" r="1.6"/>
			<circle class="st6" cx="30.1" cy="151.3" r="1.6"/>
			<circle class="st6" cx="36.9" cy="158.1" r="1.6"/>
			<circle class="st6" cx="43.6" cy="164.8" r="1.6"/>
			<circle class="st6" cx="50.3" cy="171.6" r="1.6"/>
			<circle class="st6" cx="57.1" cy="178.3" r="1.6"/>
			<circle class="st6" cx="63.8" cy="185" r="1.6"/>
			<circle class="st6" cx="70.6" cy="191.8" r="1.6"/>
			<circle class="st6" cx="77.3" cy="198.5" r="1.6"/>
			<circle class="st6" cx="23.4" cy="158.1" r="1.6"/>
			<circle class="st6" cx="30.1" cy="164.8" r="1.6"/>
			<circle class="st6" cx="36.9" cy="171.6" r="1.6"/>
			<circle class="st6" cx="43.6" cy="178.3" r="1.6"/>
			<circle class="st6" cx="50.3" cy="185" r="1.6"/>
			<circle class="st6" cx="57.1" cy="191.8" r="1.6"/>
			<circle class="st6" cx="63.8" cy="198.5" r="1.6"/>
			<circle class="st6" cx="16.6" cy="164.8" r="1.6"/>
			<circle class="st6" cx="23.4" cy="171.6" r="1.6"/>
			<circle class="st6" cx="30.1" cy="178.3" r="1.6"/>
			<circle class="st6" cx="36.9" cy="185" r="1.6"/>
			<circle class="st6" cx="43.6" cy="191.8" r="1.6"/>
			<circle class="st6" cx="50.3" cy="198.5" r="1.6"/>
			<circle class="st6" cx="9.9" cy="171.6" r="1.6"/>
			<circle class="st6" cx="16.6" cy="178.3" r="1.6"/>
			<circle class="st6" cx="23.4" cy="185" r="1.6"/>
			<circle class="st6" cx="30.1" cy="191.8" r="1.6"/>
			<circle class="st6" cx="36.9" cy="198.5" r="1.6"/>
			<circle class="st6" cx="3.2" cy="178.3" r="1.6"/>
			<circle class="st6" cx="9.9" cy="185" r="1.6"/>
			<circle class="st6" cx="16.6" cy="191.8" r="1.6"/>
			<circle class="st6" cx="23.4" cy="198.5" r="1.6"/>
			<circle class="st6" cx="3.2" cy="191.8" r="1.6"/>
			<circle class="st6" cx="9.9" cy="198.5" r="1.6"/>
			<circle class="st6" cx="131.2" cy="171.6" r="1.6"/>
			<circle class="st6" cx="137.9" cy="178.3" r="1.6"/>
			<circle class="st6" cx="144.7" cy="185" r="1.6"/>
			<circle class="st6" cx="151.4" cy="191.8" r="1.6"/>
			<circle class="st6" cx="124.5" cy="178.3" r="1.6"/>
			<circle class="st6" cx="131.2" cy="185" r="1.6"/>
			<circle class="st6" cx="137.9" cy="191.8" r="1.6"/>
			<circle class="st6" cx="144.7" cy="198.5" r="1.6"/>
			<circle class="st6" cx="117.7" cy="185" r="1.6"/>
			<circle class="st6" cx="124.5" cy="191.8" r="1.6"/>
			<circle class="st6" cx="131.2" cy="198.5" r="1.6"/>
			<circle class="st6" cx="111" cy="191.8" r="1.6"/>
			<circle class="st6" cx="117.7" cy="198.5" r="1.6"/>
			<circle class="st6" cx="104.3" cy="198.5" r="1.6"/>
			<g>
				<path class="st5" d="M77.3,104.6l-7.2-7.2l7.2-7.2l7.2,7.2L77.3,104.6z M71,97.4l6.3,6.3l6.3-6.3l-6.3-6.3L71,97.4z"/>
				<path class="st5" d="M84,111.4l-7.2-7.2L84,97l7.2,7.2L84,111.4z M77.7,104.2l6.3,6.3l6.3-6.3L84,97.9L77.7,104.2z"/>
				<path class="st5" d="M84,97.9l-7.2-7.2l7.2-7.2l7.2,7.2L84,97.9z M77.7,90.7L84,97l6.3-6.3L84,84.4L77.7,90.7z"/>
				<path class="st5" d="M90.8,104.6l-7.2-7.2l7.2-7.2l7.2,7.2L90.8,104.6z M84.5,97.4l6.3,6.3l6.3-6.3l-6.3-6.3L84.5,97.4z"/>
				<path class="st5" d="M90.8,91.1L83.6,84l7.2-7.2L98,84L90.8,91.1z M84.5,84l6.3,6.3l6.3-6.3l-6.3-6.3L84.5,84z"/>
				<path class="st5" d="M97.5,97.9l-7.2-7.2l7.2-7.2l7.2,7.2L97.5,97.9z M91.2,90.7l6.3,6.3l6.3-6.3l-6.3-6.3L91.2,90.7z"/>
				<path class="st5" d="M97.5,84.4l-7.2-7.2l7.2-7.2l7.2,7.2L97.5,84.4z M91.2,77.2l6.3,6.3l6.3-6.3l-6.3-6.3L91.2,77.2z"/>
				<path class="st5" d="M104.3,91.1L97.1,84l7.2-7.2l7.2,7.2L104.3,91.1z M98,84l6.3,6.3l6.3-6.3l-6.3-6.3L98,84z"/>
				<path class="st5" d="M104.3,77.7l-7.2-7.2l7.2-7.2l7.2,7.2L104.3,77.7z M98,70.5l6.3,6.3l6.3-6.3l-6.3-6.3L98,70.5z"/>
				<path class="st5" d="M111,84.4l-7.2-7.2L111,70l7.2,7.2L111,84.4z M104.7,77.2l6.3,6.3l6.3-6.3l-6.3-6.3L104.7,77.2z"/>
				<path class="st5" d="M111,70.9l-7.2-7.2l7.2-7.2l7.2,7.2L111,70.9z M104.7,63.7L111,70l6.3-6.3l-6.3-6.3L104.7,63.7z"/>
				<path class="st5" d="M117.7,77.7l-7.2-7.2l7.2-7.2l7.2,7.2L117.7,77.7z M111.4,70.5l6.3,6.3l6.3-6.3l-6.3-6.3L111.4,70.5z"/>
				<path class="st5" d="M117.7,64.2l-7.2-7.2l7.2-7.2l7.2,7.2L117.7,64.2z M111.4,57l6.3,6.3L124,57l-6.3-6.3L111.4,57z"/>
				<path class="st5" d="M124.5,70.9l-7.2-7.2l7.2-7.2l7.2,7.2L124.5,70.9z M118.2,63.7l6.3,6.3l6.3-6.3l-6.3-6.3L118.2,63.7z"/>
				<path class="st5" d="M124.5,57.4l-7.2-7.2l7.2-7.2l7.2,7.2L124.5,57.4z M118.2,50.3l6.3,6.3l6.3-6.3l-6.3-6.3L118.2,50.3z"/>
				<path class="st5" d="M131.2,64.2L124,57l7.2-7.2l7.2,7.2L131.2,64.2z M124.9,57l6.3,6.3l6.3-6.3l-6.3-6.3L124.9,57z"/>
				<path class="st5" d="M131.2,50.7l-7.2-7.2l7.2-7.2l7.2,7.2L131.2,50.7z M124.9,43.5l6.3,6.3l6.3-6.3l-6.3-6.3L124.9,43.5z"/>
				<path class="st5" d="M137.9,57.4l-7.2-7.2l7.2-7.2l7.2,7.2L137.9,57.4z M131.7,50.3l6.3,6.3l6.3-6.3l-6.3-6.3L131.7,50.3z"/>
				<path class="st5" d="M137.9,44l-7.2-7.2l7.2-7.2l7.2,7.2L137.9,44z M131.7,36.8l6.3,6.3l6.3-6.3l-6.3-6.3L131.7,36.8z"/>
				<path class="st5" d="M144.7,50.7l-7.2-7.2l7.2-7.2l7.2,7.2L144.7,50.7z M138.4,43.5l6.3,6.3l6.3-6.3l-6.3-6.3L138.4,43.5z"/>
				<path class="st5" d="M144.7,37.2l-7.2-7.2l7.2-7.2l7.2,7.2L144.7,37.2z M138.4,30l6.3,6.3L151,30l-6.3-6.3L138.4,30z"/>
				<path class="st5" d="M151.4,44l-7.2-7.2l7.2-7.2l7.2,7.2L151.4,44z M145.1,36.8l6.3,6.3l6.3-6.3l-6.3-6.3L145.1,36.8z"/>
				<path class="st5" d="M151.4,30.5l-7.2-7.2l7.2-7.2l7.2,7.2L151.4,30.5z M145.1,23.3l6.3,6.3l6.3-6.3l-6.3-6.3L145.1,23.3z"/>
				<path class="st5" d="M90.8,118.1l-7.2-7.2l7.2-7.2l7.2,7.2L90.8,118.1z M84.5,110.9l6.3,6.3l6.3-6.3l-6.3-6.3L84.5,110.9z"/>
				<path class="st5" d="M97.5,124.8l-7.2-7.2l7.2-7.2l7.2,7.2L97.5,124.8z M91.2,117.6l6.3,6.3l6.3-6.3l-6.3-6.3L91.2,117.6z"/>
				<path class="st5" d="M97.5,111.4l-7.2-7.2l7.2-7.2l7.2,7.2L97.5,111.4z M91.2,104.2l6.3,6.3l6.3-6.3l-6.3-6.3L91.2,104.2z"/>
				<path class="st5" d="M104.3,118.1l-7.2-7.2l7.2-7.2l7.2,7.2L104.3,118.1z M98,110.9l6.3,6.3l6.3-6.3l-6.3-6.3L98,110.9z"/>
				<path class="st5" d="M104.3,104.6l-7.2-7.2l7.2-7.2l7.2,7.2L104.3,104.6z M98,97.4l6.3,6.3l6.3-6.3l-6.3-6.3L98,97.4z"/>
				<path class="st5" d="M111,111.4l-7.2-7.2L111,97l7.2,7.2L111,111.4z M104.7,104.2l6.3,6.3l6.3-6.3l-6.3-6.3L104.7,104.2z"/>
				<path class="st5" d="M111,97.9l-7.2-7.2l7.2-7.2l7.2,7.2L111,97.9z M104.7,90.7L111,97l6.3-6.3l-6.3-6.3L104.7,90.7z"/>
				<path class="st5" d="M117.7,104.6l-7.2-7.2l7.2-7.2l7.2,7.2L117.7,104.6z M111.4,97.4l6.3,6.3l6.3-6.3l-6.3-6.3L111.4,97.4z"/>
				<path class="st5" d="M117.7,91.1l-7.2-7.2l7.2-7.2l7.2,7.2L117.7,91.1z M111.4,84l6.3,6.3L124,84l-6.3-6.3L111.4,84z"/>
				<path class="st5" d="M124.5,97.9l-7.2-7.2l7.2-7.2l7.2,7.2L124.5,97.9z M118.2,90.7l6.3,6.3l6.3-6.3l-6.3-6.3L118.2,90.7z"/>
				<path class="st5" d="M124.5,84.4l-7.2-7.2l7.2-7.2l7.2,7.2L124.5,84.4z M118.2,77.2l6.3,6.3l6.3-6.3l-6.3-6.3L118.2,77.2z"/>
				<path class="st5" d="M131.2,91.1L124,84l7.2-7.2l7.2,7.2L131.2,91.1z M124.9,84l6.3,6.3l6.3-6.3l-6.3-6.3L124.9,84z"/>
				<path class="st5" d="M131.2,77.7l-7.2-7.2l7.2-7.2l7.2,7.2L131.2,77.7z M124.9,70.5l6.3,6.3l6.3-6.3l-6.3-6.3L124.9,70.5z"/>
				<path class="st5" d="M137.9,84.4l-7.2-7.2l7.2-7.2l7.2,7.2L137.9,84.4z M131.7,77.2l6.3,6.3l6.3-6.3l-6.3-6.3L131.7,77.2z"/>
				<path class="st5" d="M137.9,70.9l-7.2-7.2l7.2-7.2l7.2,7.2L137.9,70.9z M131.7,63.7l6.3,6.3l6.3-6.3l-6.3-6.3L131.7,63.7z"/>
				<path class="st5" d="M144.7,77.7l-7.2-7.2l7.2-7.2l7.2,7.2L144.7,77.7z M138.4,70.5l6.3,6.3l6.3-6.3l-6.3-6.3L138.4,70.5z"/>
				<path class="st5" d="M144.7,64.2l-7.2-7.2l7.2-7.2l7.2,7.2L144.7,64.2z M138.4,57l6.3,6.3L151,57l-6.3-6.3L138.4,57z"/>
				<path class="st5" d="M151.4,70.9l-7.2-7.2l7.2-7.2l7.2,7.2L151.4,70.9z M145.1,63.7l6.3,6.3l6.3-6.3l-6.3-6.3L145.1,63.7z"/>
				<path class="st5" d="M151.4,57.4l-7.2-7.2l7.2-7.2l7.2,7.2L151.4,57.4z M145.1,50.3l6.3,6.3l6.3-6.3l-6.3-6.3L145.1,50.3z"/>
				<path class="st5" d="M104.3,131.6l-7.2-7.2l7.2-7.2l7.2,7.2L104.3,131.6z M98,124.4l6.3,6.3l6.3-6.3l-6.3-6.3L98,124.4z"/>
				<path class="st5" d="M111,138.3l-7.2-7.2l7.2-7.2l7.2,7.2L111,138.3z M104.7,131.1l6.3,6.3l6.3-6.3l-6.3-6.3L104.7,131.1z"/>
				<path class="st5" d="M111,124.8l-7.2-7.2l7.2-7.2l7.2,7.2L111,124.8z M104.7,117.6l6.3,6.3l6.3-6.3l-6.3-6.3L104.7,117.6z"/>
				<path class="st5" d="M117.7,131.6l-7.2-7.2l7.2-7.2l7.2,7.2L117.7,131.6z M111.4,124.4l6.3,6.3l6.3-6.3l-6.3-6.3L111.4,124.4z"
					/>
				<path class="st5" d="M117.7,118.1l-7.2-7.2l7.2-7.2l7.2,7.2L117.7,118.1z M111.4,110.9l6.3,6.3l6.3-6.3l-6.3-6.3L111.4,110.9z"
					/>
				<path class="st5" d="M124.5,124.8l-7.2-7.2l7.2-7.2l7.2,7.2L124.5,124.8z M118.2,117.6l6.3,6.3l6.3-6.3l-6.3-6.3L118.2,117.6z"
					/>
				<path class="st5" d="M124.5,111.4l-7.2-7.2l7.2-7.2l7.2,7.2L124.5,111.4z M118.2,104.2l6.3,6.3l6.3-6.3l-6.3-6.3L118.2,104.2z"
					/>
				<path class="st5" d="M131.2,118.1l-7.2-7.2l7.2-7.2l7.2,7.2L131.2,118.1z M124.9,110.9l6.3,6.3l6.3-6.3l-6.3-6.3L124.9,110.9z"
					/>
				<path class="st5" d="M131.2,104.6l-7.2-7.2l7.2-7.2l7.2,7.2L131.2,104.6z M124.9,97.4l6.3,6.3l6.3-6.3l-6.3-6.3L124.9,97.4z"/>
				<path class="st5" d="M137.9,111.4l-7.2-7.2l7.2-7.2l7.2,7.2L137.9,111.4z M131.7,104.2l6.3,6.3l6.3-6.3l-6.3-6.3L131.7,104.2z"
					/>
				<path class="st5" d="M137.9,97.9l-7.2-7.2l7.2-7.2l7.2,7.2L137.9,97.9z M131.7,90.7l6.3,6.3l6.3-6.3l-6.3-6.3L131.7,90.7z"/>
				<path class="st5" d="M144.7,104.6l-7.2-7.2l7.2-7.2l7.2,7.2L144.7,104.6z M138.4,97.4l6.3,6.3l6.3-6.3l-6.3-6.3L138.4,97.4z"/>
				<path class="st5" d="M144.7,91.1l-7.2-7.2l7.2-7.2l7.2,7.2L144.7,91.1z M138.4,84l6.3,6.3L151,84l-6.3-6.3L138.4,84z"/>
				<path class="st5" d="M151.4,97.9l-7.2-7.2l7.2-7.2l7.2,7.2L151.4,97.9z M145.1,90.7l6.3,6.3l6.3-6.3l-6.3-6.3L145.1,90.7z"/>
				<path class="st5" d="M151.4,84.4l-7.2-7.2l7.2-7.2l7.2,7.2L151.4,84.4z M145.1,77.2l6.3,6.3l6.3-6.3l-6.3-6.3L145.1,77.2z"/>
				<path class="st5" d="M117.7,145.1l-7.2-7.2l7.2-7.2l7.2,7.2L117.7,145.1z M111.4,137.9l6.3,6.3l6.3-6.3l-6.3-6.3L111.4,137.9z"
					/>
				<path class="st5" d="M124.5,151.8l-7.2-7.2l7.2-7.2l7.2,7.2L124.5,151.8z M118.2,144.6l6.3,6.3l6.3-6.3l-6.3-6.3L118.2,144.6z"
					/>
				<path class="st5" d="M124.5,138.3l-7.2-7.2l7.2-7.2l7.2,7.2L124.5,138.3z M118.2,131.1l6.3,6.3l6.3-6.3l-6.3-6.3L118.2,131.1z"
					/>
				<path class="st5" d="M131.2,145.1l-7.2-7.2l7.2-7.2l7.2,7.2L131.2,145.1z M124.9,137.9l6.3,6.3l6.3-6.3l-6.3-6.3L124.9,137.9z"
					/>
				<path class="st5" d="M131.2,131.6l-7.2-7.2l7.2-7.2l7.2,7.2L131.2,131.6z M124.9,124.4l6.3,6.3l6.3-6.3l-6.3-6.3L124.9,124.4z"
					/>
				<path class="st5" d="M137.9,138.3l-7.2-7.2l7.2-7.2l7.2,7.2L137.9,138.3z M131.7,131.1l6.3,6.3l6.3-6.3l-6.3-6.3L131.7,131.1z"
					/>
				<path class="st5" d="M137.9,124.8l-7.2-7.2l7.2-7.2l7.2,7.2L137.9,124.8z M131.7,117.6l6.3,6.3l6.3-6.3l-6.3-6.3L131.7,117.6z"
					/>
				<path class="st5" d="M144.7,131.6l-7.2-7.2l7.2-7.2l7.2,7.2L144.7,131.6z M138.4,124.4l6.3,6.3l6.3-6.3l-6.3-6.3L138.4,124.4z"
					/>
				<path class="st5" d="M144.7,118.1l-7.2-7.2l7.2-7.2l7.2,7.2L144.7,118.1z M138.4,110.9l6.3,6.3l6.3-6.3l-6.3-6.3L138.4,110.9z"
					/>
				<path class="st5" d="M151.4,124.8l-7.2-7.2l7.2-7.2l7.2,7.2L151.4,124.8z M145.1,117.6l6.3,6.3l6.3-6.3l-6.3-6.3L145.1,117.6z"
					/>
				<path class="st5" d="M151.4,111.4l-7.2-7.2l7.2-7.2l7.2,7.2L151.4,111.4z M145.1,104.2l6.3,6.3l6.3-6.3l-6.3-6.3L145.1,104.2z"
					/>
				<path class="st5" d="M131.2,158.5l-7.2-7.2l7.2-7.2l7.2,7.2L131.2,158.5z M124.9,151.3l6.3,6.3l6.3-6.3l-6.3-6.3L124.9,151.3z"
					/>
				<path class="st5" d="M137.9,165.3l-7.2-7.2l7.2-7.2l7.2,7.2L137.9,165.3z M131.7,158.1l6.3,6.3l6.3-6.3l-6.3-6.3L131.7,158.1z"
					/>
				<path class="st5" d="M137.9,151.8l-7.2-7.2l7.2-7.2l7.2,7.2L137.9,151.8z M131.7,144.6l6.3,6.3l6.3-6.3l-6.3-6.3L131.7,144.6z"
					/>
				<path class="st5" d="M144.7,158.5l-7.2-7.2l7.2-7.2l7.2,7.2L144.7,158.5z M138.4,151.3l6.3,6.3l6.3-6.3l-6.3-6.3L138.4,151.3z"
					/>
				<path class="st5" d="M144.7,145.1l-7.2-7.2l7.2-7.2l7.2,7.2L144.7,145.1z M138.4,137.9l6.3,6.3l6.3-6.3l-6.3-6.3L138.4,137.9z"
					/>
				<path class="st5" d="M151.4,151.8l-7.2-7.2l7.2-7.2l7.2,7.2L151.4,151.8z M145.1,144.6l6.3,6.3l6.3-6.3l-6.3-6.3L145.1,144.6z"
					/>
				<path class="st5" d="M151.4,138.3l-7.2-7.2l7.2-7.2l7.2,7.2L151.4,138.3z M145.1,131.1l6.3,6.3l6.3-6.3l-6.3-6.3L145.1,131.1z"
					/>
			</g>
			<g>
				<path class="st5" d="M144.7,172l-7.2-7.2l7.2-7.2l7.2,7.2L144.7,172z M138.4,164.8l6.3,6.3l6.3-6.3l-6.3-6.3L138.4,164.8z"/>
				<path class="st5" d="M151.4,178.8l-7.2-7.2l7.2-7.2l7.2,7.2L151.4,178.8z M145.1,171.6l6.3,6.3l6.3-6.3l-6.3-6.3L145.1,171.6z"
					/>
				<path class="st5" d="M151.4,165.3l-7.2-7.2l7.2-7.2l7.2,7.2L151.4,165.3z M145.1,158.1l6.3,6.3l6.3-6.3l-6.3-6.3L145.1,158.1z"
					/>
			</g>
			<circle class="st6" cx="151.4" cy="30" r="1.6"/>
			<circle class="st6" cx="144.7" cy="36.8" r="1.6"/>
			<circle class="st6" cx="151.4" cy="43.5" r="1.6"/>
			<circle class="st6" cx="137.9" cy="43.5" r="1.6"/>
			<circle class="st6" cx="144.7" cy="50.3" r="1.6"/>
			<circle class="st6" cx="151.4" cy="57" r="1.6"/>
			<circle class="st6" cx="131.2" cy="50.3" r="1.6"/>
			<circle class="st6" cx="137.9" cy="57" r="1.6"/>
			<circle class="st6" cx="144.7" cy="63.7" r="1.6"/>
			<circle class="st6" cx="151.4" cy="70.5" r="1.6"/>
			<circle class="st6" cx="124.5" cy="57" r="1.6"/>
			<circle class="st6" cx="131.2" cy="63.7" r="1.6"/>
			<circle class="st6" cx="137.9" cy="70.5" r="1.6"/>
			<circle class="st6" cx="144.7" cy="77.2" r="1.6"/>
			<circle class="st6" cx="151.4" cy="84" r="1.6"/>
			<circle class="st6" cx="117.7" cy="63.7" r="1.6"/>
			<circle class="st6" cx="124.5" cy="70.5" r="1.6"/>
			<circle class="st6" cx="131.2" cy="77.2" r="1.6"/>
			<circle class="st6" cx="137.9" cy="84" r="1.6"/>
			<circle class="st6" cx="144.7" cy="90.7" r="1.6"/>
			<circle class="st6" cx="151.4" cy="97.4" r="1.6"/>
			<circle class="st6" cx="111" cy="70.5" r="1.6"/>
			<circle class="st6" cx="117.7" cy="77.2" r="1.6"/>
			<circle class="st6" cx="124.5" cy="84" r="1.6"/>
			<circle class="st6" cx="131.2" cy="90.7" r="1.6"/>
			<circle class="st6" cx="137.9" cy="97.4" r="1.6"/>
			<circle class="st6" cx="144.7" cy="104.2" r="1.6"/>
			<circle class="st6" cx="151.4" cy="110.9" r="1.6"/>
			<circle class="st6" cx="104.3" cy="77.2" r="1.6"/>
			<circle class="st6" cx="111" cy="84" r="1.6"/>
			<circle class="st6" cx="117.7" cy="90.7" r="1.6"/>
			<circle class="st6" cx="124.5" cy="97.4" r="1.6"/>
			<circle class="st6" cx="131.2" cy="104.2" r="1.6"/>
			<circle class="st6" cx="137.9" cy="110.9" r="1.6"/>
			<circle class="st6" cx="144.7" cy="117.6" r="1.6"/>
			<circle class="st6" cx="151.4" cy="124.4" r="1.6"/>
			<circle class="st6" cx="97.5" cy="84" r="1.6"/>
			<circle class="st6" cx="104.3" cy="90.7" r="1.6"/>
			<circle class="st6" cx="111" cy="97.4" r="1.6"/>
			<circle class="st6" cx="117.7" cy="104.2" r="1.6"/>
			<circle class="st6" cx="124.5" cy="110.9" r="1.6"/>
			<circle class="st6" cx="131.2" cy="117.6" r="1.6"/>
			<circle class="st6" cx="137.9" cy="124.4" r="1.6"/>
			<circle class="st6" cx="144.7" cy="131.1" r="1.6"/>
			<circle class="st6" cx="151.4" cy="137.9" r="1.6"/>
			<circle class="st6" cx="90.8" cy="90.7" r="1.6"/>
			<circle class="st6" cx="97.5" cy="97.4" r="1.6"/>
			<circle class="st6" cx="104.3" cy="104.2" r="1.6"/>
			<circle class="st6" cx="111" cy="110.9" r="1.6"/>
			<circle class="st6" cx="117.7" cy="117.6" r="1.6"/>
			<circle class="st6" cx="124.5" cy="124.4" r="1.6"/>
			<circle class="st6" cx="131.2" cy="131.1" r="1.6"/>
			<circle class="st6" cx="137.9" cy="137.9" r="1.6"/>
			<circle class="st6" cx="144.7" cy="144.6" r="1.6"/>
			<circle class="st6" cx="84" cy="97.4" r="1.6"/>
			<circle class="st6" cx="90.8" cy="104.2" r="1.6"/>
			<circle class="st6" cx="97.5" cy="110.9" r="1.6"/>
			<circle class="st6" cx="104.3" cy="117.6" r="1.6"/>
			<circle class="st6" cx="111" cy="124.4" r="1.6"/>
			<circle class="st6" cx="117.7" cy="131.1" r="1.6"/>
			<circle class="st6" cx="124.5" cy="137.9" r="1.6"/>
			<circle class="st6" cx="131.2" cy="144.6" r="1.6"/>
			<circle class="st6" cx="137.9" cy="151.3" r="1.6"/>
			<circle class="st6" cx="151.4" cy="151.3" r="1.6"/>
			<circle class="st6" cx="144.7" cy="158.1" r="1.6"/>
			<circle class="st6" cx="151.4" cy="164.8" r="1.6"/>
			<circle class="st6" cx="77.3" cy="104.2" r="1.6"/>
			<circle class="st6" cx="84" cy="110.9" r="1.6"/>
			<circle class="st6" cx="90.8" cy="117.6" r="1.6"/>
			<circle class="st6" cx="97.5" cy="124.4" r="1.6"/>
			<circle class="st6" cx="104.3" cy="131.1" r="1.6"/>
			<circle class="st6" cx="111" cy="137.9" r="1.6"/>
			<circle class="st6" cx="117.7" cy="144.6" r="1.6"/>
			<circle class="st6" cx="124.5" cy="151.3" r="1.6"/>
			<circle class="st6" cx="131.2" cy="158.1" r="1.6"/>
			<circle class="st6" cx="137.9" cy="164.8" r="1.6"/>
			<circle class="st6" cx="144.7" cy="171.6" r="1.6"/>
			<circle class="st6" cx="151.4" cy="178.3" r="1.6"/>
			<g>
				<path class="st5" d="M-3.6,37.2l-7.2-7.2l7.2-7.2L3.6,30L-3.6,37.2z M-9.9,30l6.3,6.3L2.7,30l-6.3-6.3L-9.9,30z"/>
			</g>
			<g>
				<path class="st5" d="M-3.6,64.2l-7.2-7.2l7.2-7.2L3.6,57L-3.6,64.2z M-9.9,57l6.3,6.3L2.7,57l-6.3-6.3L-9.9,57z"/>
				<path class="st5" d="M-3.6,50.7l-7.2-7.2l7.2-7.2l7.2,7.2L-3.6,50.7z M-9.9,43.5l6.3,6.3l6.3-6.3l-6.3-6.3L-9.9,43.5z"/>
				<path class="st5" d="M3.2,57.4L-4,50.3l7.2-7.2l7.2,7.2L3.2,57.4z M-3.1,50.3l6.3,6.3l6.3-6.3L3.2,44L-3.1,50.3z"/>
				<path class="st5" d="M3.2,44L-4,36.8l7.2-7.2l7.2,7.2L3.2,44z M-3.1,36.8l6.3,6.3l6.3-6.3l-6.3-6.3L-3.1,36.8z"/>
				<path class="st5" d="M9.9,50.7l-7.2-7.2l7.2-7.2l7.2,7.2L9.9,50.7z M3.6,43.5l6.3,6.3l6.3-6.3l-6.3-6.3L3.6,43.5z"/>
				<path class="st5" d="M-3.6,91.1l-7.2-7.2l7.2-7.2L3.6,84L-3.6,91.1z M-9.9,84l6.3,6.3L2.7,84l-6.3-6.3L-9.9,84z"/>
				<path class="st5" d="M-3.6,77.7l-7.2-7.2l7.2-7.2l7.2,7.2L-3.6,77.7z M-9.9,70.5l6.3,6.3l6.3-6.3l-6.3-6.3L-9.9,70.5z"/>
				<path class="st5" d="M3.2,84.4L-4,77.2L3.2,70l7.2,7.2L3.2,84.4z M-3.1,77.2l6.3,6.3l6.3-6.3l-6.3-6.3L-3.1,77.2z"/>
				<path class="st5" d="M3.2,70.9L-4,63.7l7.2-7.2l7.2,7.2L3.2,70.9z M-3.1,63.7L3.2,70l6.3-6.3l-6.3-6.3L-3.1,63.7z"/>
				<path class="st5" d="M9.9,77.7l-7.2-7.2l7.2-7.2l7.2,7.2L9.9,77.7z M3.6,70.5l6.3,6.3l6.3-6.3l-6.3-6.3L3.6,70.5z"/>
				<path class="st5" d="M9.9,64.2L2.7,57l7.2-7.2l7.2,7.2L9.9,64.2z M3.6,57l6.3,6.3l6.3-6.3l-6.3-6.3L3.6,57z"/>
				<path class="st5" d="M16.6,70.9l-7.2-7.2l7.2-7.2l7.2,7.2L16.6,70.9z M10.4,63.7l6.3,6.3l6.3-6.3l-6.3-6.3L10.4,63.7z"/>
				<path class="st5" d="M16.6,57.4l-7.2-7.2l7.2-7.2l7.2,7.2L16.6,57.4z M10.4,50.3l6.3,6.3l6.3-6.3L16.6,44L10.4,50.3z"/>
				<path class="st5" d="M23.4,64.2L16.2,57l7.2-7.2l7.2,7.2L23.4,64.2z M17.1,57l6.3,6.3l6.3-6.3l-6.3-6.3L17.1,57z"/>
				<path class="st5" d="M-3.6,118.1l-7.2-7.2l7.2-7.2l7.2,7.2L-3.6,118.1z M-9.9,110.9l6.3,6.3l6.3-6.3l-6.3-6.3L-9.9,110.9z"/>
				<path class="st5" d="M-3.6,104.6l-7.2-7.2l7.2-7.2l7.2,7.2L-3.6,104.6z M-9.9,97.4l6.3,6.3l6.3-6.3l-6.3-6.3L-9.9,97.4z"/>
				<path class="st5" d="M3.2,111.4l-7.2-7.2L3.2,97l7.2,7.2L3.2,111.4z M-3.1,104.2l6.3,6.3l6.3-6.3l-6.3-6.3L-3.1,104.2z"/>
				<path class="st5" d="M3.2,97.9L-4,90.7l7.2-7.2l7.2,7.2L3.2,97.9z M-3.1,90.7L3.2,97l6.3-6.3l-6.3-6.3L-3.1,90.7z"/>
				<path class="st5" d="M9.9,104.6l-7.2-7.2l7.2-7.2l7.2,7.2L9.9,104.6z M3.6,97.4l6.3,6.3l6.3-6.3l-6.3-6.3L3.6,97.4z"/>
				<path class="st5" d="M9.9,91.1L2.7,84l7.2-7.2l7.2,7.2L9.9,91.1z M3.6,84l6.3,6.3l6.3-6.3l-6.3-6.3L3.6,84z"/>
				<path class="st5" d="M16.6,97.9l-7.2-7.2l7.2-7.2l7.2,7.2L16.6,97.9z M10.4,90.7l6.3,6.3l6.3-6.3l-6.3-6.3L10.4,90.7z"/>
				<path class="st5" d="M16.6,84.4l-7.2-7.2l7.2-7.2l7.2,7.2L16.6,84.4z M10.4,77.2l6.3,6.3l6.3-6.3l-6.3-6.3L10.4,77.2z"/>
				<path class="st5" d="M23.4,91.1L16.2,84l7.2-7.2l7.2,7.2L23.4,91.1z M17.1,84l6.3,6.3l6.3-6.3l-6.3-6.3L17.1,84z"/>
				<path class="st5" d="M23.4,77.7l-7.2-7.2l7.2-7.2l7.2,7.2L23.4,77.7z M17.1,70.5l6.3,6.3l6.3-6.3l-6.3-6.3L17.1,70.5z"/>
				<path class="st5" d="M30.1,84.4l-7.2-7.2l7.2-7.2l7.2,7.2L30.1,84.4z M23.8,77.2l6.3,6.3l6.3-6.3l-6.3-6.3L23.8,77.2z"/>
				<path class="st5" d="M30.1,70.9l-7.2-7.2l7.2-7.2l7.2,7.2L30.1,70.9z M23.8,63.7l6.3,6.3l6.3-6.3l-6.3-6.3L23.8,63.7z"/>
				<path class="st5" d="M36.9,77.7l-7.2-7.2l7.2-7.2l7.2,7.2L36.9,77.7z M30.6,70.5l6.3,6.3l6.3-6.3l-6.3-6.3L30.6,70.5z"/>
				<path class="st5" d="M-3.6,145.1l-7.2-7.2l7.2-7.2l7.2,7.2L-3.6,145.1z M-9.9,137.9l6.3,6.3l6.3-6.3l-6.3-6.3L-9.9,137.9z"/>
				<path class="st5" d="M-3.6,131.6l-7.2-7.2l7.2-7.2l7.2,7.2L-3.6,131.6z M-9.9,124.4l6.3,6.3l6.3-6.3l-6.3-6.3L-9.9,124.4z"/>
				<path class="st5" d="M3.2,138.3l-7.2-7.2l7.2-7.2l7.2,7.2L3.2,138.3z M-3.1,131.1l6.3,6.3l6.3-6.3l-6.3-6.3L-3.1,131.1z"/>
				<path class="st5" d="M3.2,124.8l-7.2-7.2l7.2-7.2l7.2,7.2L3.2,124.8z M-3.1,117.6l6.3,6.3l6.3-6.3l-6.3-6.3L-3.1,117.6z"/>
				<path class="st5" d="M9.9,131.6l-7.2-7.2l7.2-7.2l7.2,7.2L9.9,131.6z M3.6,124.4l6.3,6.3l6.3-6.3l-6.3-6.3L3.6,124.4z"/>
				<path class="st5" d="M9.9,118.1l-7.2-7.2l7.2-7.2l7.2,7.2L9.9,118.1z M3.6,110.9l6.3,6.3l6.3-6.3l-6.3-6.3L3.6,110.9z"/>
				<path class="st5" d="M16.6,124.8l-7.2-7.2l7.2-7.2l7.2,7.2L16.6,124.8z M10.4,117.6l6.3,6.3l6.3-6.3l-6.3-6.3L10.4,117.6z"/>
				<path class="st5" d="M16.6,111.4l-7.2-7.2l7.2-7.2l7.2,7.2L16.6,111.4z M10.4,104.2l6.3,6.3l6.3-6.3l-6.3-6.3L10.4,104.2z"/>
				<path class="st5" d="M23.4,118.1l-7.2-7.2l7.2-7.2l7.2,7.2L23.4,118.1z M17.1,110.9l6.3,6.3l6.3-6.3l-6.3-6.3L17.1,110.9z"/>
				<path class="st5" d="M23.4,104.6l-7.2-7.2l7.2-7.2l7.2,7.2L23.4,104.6z M17.1,97.4l6.3,6.3l6.3-6.3l-6.3-6.3L17.1,97.4z"/>
				<path class="st5" d="M30.1,111.4l-7.2-7.2l7.2-7.2l7.2,7.2L30.1,111.4z M23.8,104.2l6.3,6.3l6.3-6.3l-6.3-6.3L23.8,104.2z"/>
				<path class="st5" d="M30.1,97.9l-7.2-7.2l7.2-7.2l7.2,7.2L30.1,97.9z M23.8,90.7l6.3,6.3l6.3-6.3l-6.3-6.3L23.8,90.7z"/>
				<path class="st5" d="M36.9,104.6l-7.2-7.2l7.2-7.2l7.2,7.2L36.9,104.6z M30.6,97.4l6.3,6.3l6.3-6.3l-6.3-6.3L30.6,97.4z"/>
				<path class="st5" d="M36.9,91.1L29.7,84l7.2-7.2L44,84L36.9,91.1z M30.6,84l6.3,6.3l6.3-6.3l-6.3-6.3L30.6,84z"/>
				<path class="st5" d="M43.6,97.9l-7.2-7.2l7.2-7.2l7.2,7.2L43.6,97.9z M37.3,90.7l6.3,6.3l6.3-6.3l-6.3-6.3L37.3,90.7z"/>
				<path class="st5" d="M43.6,84.4l-7.2-7.2l7.2-7.2l7.2,7.2L43.6,84.4z M37.3,77.2l6.3,6.3l6.3-6.3l-6.3-6.3L37.3,77.2z"/>
				<path class="st5" d="M50.3,91.1L43.1,84l7.2-7.2l7.2,7.2L50.3,91.1z M44,84l6.3,6.3l6.3-6.3l-6.3-6.3L44,84z"/>
				<path class="st5" d="M-3.6,172l-7.2-7.2l7.2-7.2l7.2,7.2L-3.6,172z M-9.9,164.8l6.3,6.3l6.3-6.3l-6.3-6.3L-9.9,164.8z"/>
				<path class="st5" d="M-3.6,158.5l-7.2-7.2l7.2-7.2l7.2,7.2L-3.6,158.5z M-9.9,151.3l6.3,6.3l6.3-6.3l-6.3-6.3L-9.9,151.3z"/>
				<path class="st5" d="M3.2,165.3l-7.2-7.2l7.2-7.2l7.2,7.2L3.2,165.3z M-3.1,158.1l6.3,6.3l6.3-6.3l-6.3-6.3L-3.1,158.1z"/>
				<path class="st5" d="M3.2,151.8l-7.2-7.2l7.2-7.2l7.2,7.2L3.2,151.8z M-3.1,144.6l6.3,6.3l6.3-6.3l-6.3-6.3L-3.1,144.6z"/>
				<path class="st5" d="M9.9,158.5l-7.2-7.2l7.2-7.2l7.2,7.2L9.9,158.5z M3.6,151.3l6.3,6.3l6.3-6.3l-6.3-6.3L3.6,151.3z"/>
				<path class="st5" d="M9.9,145.1l-7.2-7.2l7.2-7.2l7.2,7.2L9.9,145.1z M3.6,137.9l6.3,6.3l6.3-6.3l-6.3-6.3L3.6,137.9z"/>
				<path class="st5" d="M16.6,151.8l-7.2-7.2l7.2-7.2l7.2,7.2L16.6,151.8z M10.4,144.6l6.3,6.3l6.3-6.3l-6.3-6.3L10.4,144.6z"/>
				<path class="st5" d="M16.6,138.3l-7.2-7.2l7.2-7.2l7.2,7.2L16.6,138.3z M10.4,131.1l6.3,6.3l6.3-6.3l-6.3-6.3L10.4,131.1z"/>
				<path class="st5" d="M23.4,145.1l-7.2-7.2l7.2-7.2l7.2,7.2L23.4,145.1z M17.1,137.9l6.3,6.3l6.3-6.3l-6.3-6.3L17.1,137.9z"/>
				<path class="st5" d="M23.4,131.6l-7.2-7.2l7.2-7.2l7.2,7.2L23.4,131.6z M17.1,124.4l6.3,6.3l6.3-6.3l-6.3-6.3L17.1,124.4z"/>
				<path class="st5" d="M30.1,138.3l-7.2-7.2l7.2-7.2l7.2,7.2L30.1,138.3z M23.8,131.1l6.3,6.3l6.3-6.3l-6.3-6.3L23.8,131.1z"/>
				<path class="st5" d="M30.1,124.8l-7.2-7.2l7.2-7.2l7.2,7.2L30.1,124.8z M23.8,117.6l6.3,6.3l6.3-6.3l-6.3-6.3L23.8,117.6z"/>
				<path class="st5" d="M36.9,131.6l-7.2-7.2l7.2-7.2l7.2,7.2L36.9,131.6z M30.6,124.4l6.3,6.3l6.3-6.3l-6.3-6.3L30.6,124.4z"/>
				<path class="st5" d="M36.9,118.1l-7.2-7.2l7.2-7.2l7.2,7.2L36.9,118.1z M30.6,110.9l6.3,6.3l6.3-6.3l-6.3-6.3L30.6,110.9z"/>
				<path class="st5" d="M43.6,124.8l-7.2-7.2l7.2-7.2l7.2,7.2L43.6,124.8z M37.3,117.6l6.3,6.3l6.3-6.3l-6.3-6.3L37.3,117.6z"/>
				<path class="st5" d="M43.6,111.4l-7.2-7.2l7.2-7.2l7.2,7.2L43.6,111.4z M37.3,104.2l6.3,6.3l6.3-6.3l-6.3-6.3L37.3,104.2z"/>
				<path class="st5" d="M50.3,118.1l-7.2-7.2l7.2-7.2l7.2,7.2L50.3,118.1z M44,110.9l6.3,6.3l6.3-6.3l-6.3-6.3L44,110.9z"/>
				<path class="st5" d="M50.3,104.6l-7.2-7.2l7.2-7.2l7.2,7.2L50.3,104.6z M44,97.4l6.3,6.3l6.3-6.3l-6.3-6.3L44,97.4z"/>
				<path class="st5" d="M57.1,111.4l-7.2-7.2l7.2-7.2l7.2,7.2L57.1,111.4z M50.8,104.2l6.3,6.3l6.3-6.3l-6.3-6.3L50.8,104.2z"/>
				<path class="st5" d="M57.1,97.9l-7.2-7.2l7.2-7.2l7.2,7.2L57.1,97.9z M50.8,90.7l6.3,6.3l6.3-6.3l-6.3-6.3L50.8,90.7z"/>
				<path class="st5" d="M63.8,104.6l-7.2-7.2l7.2-7.2l7.2,7.2L63.8,104.6z M57.5,97.4l6.3,6.3l6.3-6.3l-6.3-6.3L57.5,97.4z"/>
			</g>
			<circle class="st6" cx="3.2" cy="43.5" r="1.6"/>
			<circle class="st6" cx="9.9" cy="50.3" r="1.6"/>
			<circle class="st6" cx="16.6" cy="57" r="1.6"/>
			<circle class="st6" cx="23.4" cy="63.7" r="1.6"/>
			<circle class="st6" cx="30.1" cy="70.5" r="1.6"/>
			<circle class="st6" cx="36.9" cy="77.2" r="1.6"/>
			<circle class="st6" cx="43.6" cy="84" r="1.6"/>
			<circle class="st6" cx="50.3" cy="90.7" r="1.6"/>
			<circle class="st6" cx="3.2" cy="57" r="1.6"/>
			<circle class="st6" cx="9.9" cy="63.7" r="1.6"/>
			<circle class="st6" cx="16.6" cy="70.5" r="1.6"/>
			<circle class="st6" cx="23.4" cy="77.2" r="1.6"/>
			<circle class="st6" cx="30.1" cy="84" r="1.6"/>
			<circle class="st6" cx="36.9" cy="90.7" r="1.6"/>
			<circle class="st6" cx="43.6" cy="97.4" r="1.6"/>
			<circle class="st6" cx="3.2" cy="70.5" r="1.6"/>
			<circle class="st6" cx="9.9" cy="77.2" r="1.6"/>
			<circle class="st6" cx="16.6" cy="84" r="1.6"/>
			<circle class="st6" cx="23.4" cy="90.7" r="1.6"/>
			<circle class="st6" cx="30.1" cy="97.4" r="1.6"/>
			<circle class="st6" cx="36.9" cy="104.2" r="1.6"/>
			<circle class="st6" cx="3.2" cy="84" r="1.6"/>
			<circle class="st6" cx="9.9" cy="90.7" r="1.6"/>
			<circle class="st6" cx="16.6" cy="97.4" r="1.6"/>
			<circle class="st6" cx="23.4" cy="104.2" r="1.6"/>
			<circle class="st6" cx="30.1" cy="110.9" r="1.6"/>
			<circle class="st6" cx="3.2" cy="97.4" r="1.6"/>
			<circle class="st6" cx="9.9" cy="104.2" r="1.6"/>
			<circle class="st6" cx="16.6" cy="110.9" r="1.6"/>
			<circle class="st6" cx="23.4" cy="117.6" r="1.6"/>
			<circle class="st6" cx="3.2" cy="110.9" r="1.6"/>
			<circle class="st6" cx="9.9" cy="117.6" r="1.6"/>
			<circle class="st6" cx="16.6" cy="124.4" r="1.6"/>
			<circle class="st6" cx="3.2" cy="124.4" r="1.6"/>
			<circle class="st6" cx="9.9" cy="131.1" r="1.6"/>
			<circle class="st6" cx="3.2" cy="137.9" r="1.6"/>
			<circle class="st6" cx="57.1" cy="97.4" r="1.6"/>
			<circle class="st6" cx="50.3" cy="104.2" r="1.6"/>
			<circle class="st6" cx="43.6" cy="110.9" r="1.6"/>
			<circle class="st6" cx="36.9" cy="117.6" r="1.6"/>
			<circle class="st6" cx="30.1" cy="124.4" r="1.6"/>
			<circle class="st6" cx="23.4" cy="131.1" r="1.6"/>
			<circle class="st6" cx="16.6" cy="137.9" r="1.6"/>
			<circle class="st6" cx="9.9" cy="144.6" r="1.6"/>
			<circle class="st6" cx="3.2" cy="151.3" r="1.6"/>
			<g>
				<path class="st5" d="M-3.6,10.3l-7.2-7.2l7.2-7.2l7.2,7.2L-3.6,10.3z M-9.9,3.1l6.3,6.3l6.3-6.3l-6.3-6.3L-9.9,3.1z"/>
				<path class="st5" d="M3.2,3.5L-4-3.7l7.2-7.2l7.2,7.2L3.2,3.5z M-3.1-3.7l6.3,6.3l6.3-6.3L3.2-9.9L-3.1-3.7z"/>
				<path class="st5" d="M-3.6,23.8l-7.2-7.2l7.2-7.2l7.2,7.2L-3.6,23.8z M-9.9,16.6l6.3,6.3l6.3-6.3l-6.3-6.3L-9.9,16.6z"/>
				<path class="st5" d="M3.2,30.5L-4,23.3l7.2-7.2l7.2,7.2L3.2,30.5z M-3.1,23.3l6.3,6.3l6.3-6.3L3.2,17L-3.1,23.3z"/>
				<path class="st5" d="M3.2,17L-4,9.8l7.2-7.2l7.2,7.2L3.2,17z M-3.1,9.8l6.3,6.3l6.3-6.3L3.2,3.5L-3.1,9.8z"/>
				<path class="st5" d="M9.9,23.8l-7.2-7.2l7.2-7.2l7.2,7.2L9.9,23.8z M3.6,16.6l6.3,6.3l6.3-6.3l-6.3-6.3L3.6,16.6z"/>
				<path class="st5" d="M9.9,10.3L2.7,3.1l7.2-7.2l7.2,7.2L9.9,10.3z M3.6,3.1l6.3,6.3l6.3-6.3L9.9-3.2L3.6,3.1z"/>
				<path class="st5" d="M16.6,17L9.5,9.8l7.2-7.2l7.2,7.2L16.6,17z M10.4,9.8l6.3,6.3l6.3-6.3l-6.3-6.3L10.4,9.8z"/>
				<path class="st5" d="M16.6,3.5L9.5-3.7l7.2-7.2l7.2,7.2L16.6,3.5z M10.4-3.7l6.3,6.3l6.3-6.3l-6.3-6.3L10.4-3.7z"/>
				<path class="st5" d="M23.4,10.3l-7.2-7.2l7.2-7.2l7.2,7.2L23.4,10.3z M17.1,3.1l6.3,6.3l6.3-6.3l-6.3-6.3L17.1,3.1z"/>
				<path class="st5" d="M30.1,3.5l-7.2-7.2l7.2-7.2l7.2,7.2L30.1,3.5z M23.8-3.7l6.3,6.3l6.3-6.3l-6.3-6.3L23.8-3.7z"/>
			</g>
			<g>
				<path class="st5" d="M9.9,37.2L2.7,30l7.2-7.2l7.2,7.2L9.9,37.2z M3.6,30l6.3,6.3l6.3-6.3l-6.3-6.3L3.6,30z"/>
				<path class="st5" d="M16.6,44l-7.2-7.2l7.2-7.2l7.2,7.2L16.6,44z M10.4,36.8l6.3,6.3l6.3-6.3l-6.3-6.3L10.4,36.8z"/>
				<path class="st5" d="M16.6,30.5l-7.2-7.2l7.2-7.2l7.2,7.2L16.6,30.5z M10.4,23.3l6.3,6.3l6.3-6.3L16.6,17L10.4,23.3z"/>
				<path class="st5" d="M23.4,37.2L16.2,30l7.2-7.2l7.2,7.2L23.4,37.2z M17.1,30l6.3,6.3l6.3-6.3l-6.3-6.3L17.1,30z"/>
				<path class="st5" d="M23.4,23.8l-7.2-7.2l7.2-7.2l7.2,7.2L23.4,23.8z M17.1,16.6l6.3,6.3l6.3-6.3l-6.3-6.3L17.1,16.6z"/>
				<path class="st5" d="M30.1,30.5l-7.2-7.2l7.2-7.2l7.2,7.2L30.1,30.5z M23.8,23.3l6.3,6.3l6.3-6.3L30.1,17L23.8,23.3z"/>
				<path class="st5" d="M30.1,17l-7.2-7.2l7.2-7.2l7.2,7.2L30.1,17z M23.8,9.8l6.3,6.3l6.3-6.3l-6.3-6.3L23.8,9.8z"/>
				<path class="st5" d="M36.9,23.8l-7.2-7.2l7.2-7.2l7.2,7.2L36.9,23.8z M30.6,16.6l6.3,6.3l6.3-6.3l-6.3-6.3L30.6,16.6z"/>
				<path class="st5" d="M36.9,10.3l-7.2-7.2l7.2-7.2L44,3.1L36.9,10.3z M30.6,3.1l6.3,6.3l6.3-6.3l-6.3-6.3L30.6,3.1z"/>
				<path class="st5" d="M43.6,17l-7.2-7.2l7.2-7.2l7.2,7.2L43.6,17z M37.3,9.8l6.3,6.3l6.3-6.3l-6.3-6.3L37.3,9.8z"/>
				<path class="st5" d="M43.6,3.5l-7.2-7.2l7.2-7.2l7.2,7.2L43.6,3.5z M37.3-3.7l6.3,6.3l6.3-6.3l-6.3-6.3L37.3-3.7z"/>
				<path class="st5" d="M50.3,10.3l-7.2-7.2l7.2-7.2l7.2,7.2L50.3,10.3z M44,3.1l6.3,6.3l6.3-6.3l-6.3-6.3L44,3.1z"/>
				<path class="st5" d="M57.1,3.5l-7.2-7.2l7.2-7.2l7.2,7.2L57.1,3.5z M50.8-3.7l6.3,6.3l6.3-6.3l-6.3-6.3L50.8-3.7z"/>
				<path class="st5" d="M23.4,50.7l-7.2-7.2l7.2-7.2l7.2,7.2L23.4,50.7z M17.1,43.5l6.3,6.3l6.3-6.3l-6.3-6.3L17.1,43.5z"/>
				<path class="st5" d="M30.1,57.4l-7.2-7.2l7.2-7.2l7.2,7.2L30.1,57.4z M23.8,50.3l6.3,6.3l6.3-6.3L30.1,44L23.8,50.3z"/>
				<path class="st5" d="M30.1,44l-7.2-7.2l7.2-7.2l7.2,7.2L30.1,44z M23.8,36.8l6.3,6.3l6.3-6.3l-6.3-6.3L23.8,36.8z"/>
				<path class="st5" d="M36.9,50.7l-7.2-7.2l7.2-7.2l7.2,7.2L36.9,50.7z M30.6,43.5l6.3,6.3l6.3-6.3l-6.3-6.3L30.6,43.5z"/>
				<path class="st5" d="M36.9,37.2L29.7,30l7.2-7.2L44,30L36.9,37.2z M30.6,30l6.3,6.3l6.3-6.3l-6.3-6.3L30.6,30z"/>
				<path class="st5" d="M43.6,44l-7.2-7.2l7.2-7.2l7.2,7.2L43.6,44z M37.3,36.8l6.3,6.3l6.3-6.3l-6.3-6.3L37.3,36.8z"/>
				<path class="st5" d="M43.6,30.5l-7.2-7.2l7.2-7.2l7.2,7.2L43.6,30.5z M37.3,23.3l6.3,6.3l6.3-6.3L43.6,17L37.3,23.3z"/>
				<path class="st5" d="M50.3,37.2L43.1,30l7.2-7.2l7.2,7.2L50.3,37.2z M44,30l6.3,6.3l6.3-6.3l-6.3-6.3L44,30z"/>
				<path class="st5" d="M50.3,23.8l-7.2-7.2l7.2-7.2l7.2,7.2L50.3,23.8z M44,16.6l6.3,6.3l6.3-6.3l-6.3-6.3L44,16.6z"/>
				<path class="st5" d="M57.1,30.5l-7.2-7.2l7.2-7.2l7.2,7.2L57.1,30.5z M50.8,23.3l6.3,6.3l6.3-6.3L57.1,17L50.8,23.3z"/>
				<path class="st5" d="M57.1,17l-7.2-7.2l7.2-7.2l7.2,7.2L57.1,17z M50.8,9.8l6.3,6.3l6.3-6.3l-6.3-6.3L50.8,9.8z"/>
				<path class="st5" d="M63.8,23.8l-7.2-7.2l7.2-7.2l7.2,7.2L63.8,23.8z M57.5,16.6l6.3,6.3l6.3-6.3l-6.3-6.3L57.5,16.6z"/>
				<path class="st5" d="M63.8,10.3l-7.2-7.2l7.2-7.2L71,3.1L63.8,10.3z M57.5,3.1l6.3,6.3l6.3-6.3l-6.3-6.3L57.5,3.1z"/>
				<path class="st5" d="M70.6,17l-7.2-7.2l7.2-7.2l7.2,7.2L70.6,17z M64.3,9.8l6.3,6.3l6.3-6.3l-6.3-6.3L64.3,9.8z"/>
				<path class="st5" d="M70.6,3.5l-7.2-7.2l7.2-7.2l7.2,7.2L70.6,3.5z M64.3-3.7l6.3,6.3l6.3-6.3l-6.3-6.3L64.3-3.7z"/>
				<path class="st5" d="M77.3,10.3l-7.2-7.2l7.2-7.2l7.2,7.2L77.3,10.3z M71,3.1l6.3,6.3l6.3-6.3l-6.3-6.3L71,3.1z"/>
				<path class="st5" d="M84,3.5l-7.2-7.2l7.2-7.2l7.2,7.2L84,3.5z M77.7-3.7L84,2.6l6.3-6.3L84-9.9L77.7-3.7z"/>
				<path class="st5" d="M36.9,64.2L29.7,57l7.2-7.2L44,57L36.9,64.2z M30.6,57l6.3,6.3l6.3-6.3l-6.3-6.3L30.6,57z"/>
				<path class="st5" d="M43.6,70.9l-7.2-7.2l7.2-7.2l7.2,7.2L43.6,70.9z M37.3,63.7l6.3,6.3l6.3-6.3l-6.3-6.3L37.3,63.7z"/>
				<path class="st5" d="M43.6,57.4l-7.2-7.2l7.2-7.2l7.2,7.2L43.6,57.4z M37.3,50.3l6.3,6.3l6.3-6.3L43.6,44L37.3,50.3z"/>
				<path class="st5" d="M50.3,64.2L43.1,57l7.2-7.2l7.2,7.2L50.3,64.2z M44,57l6.3,6.3l6.3-6.3l-6.3-6.3L44,57z"/>
				<path class="st5" d="M50.3,50.7l-7.2-7.2l7.2-7.2l7.2,7.2L50.3,50.7z M44,43.5l6.3,6.3l6.3-6.3l-6.3-6.3L44,43.5z"/>
				<path class="st5" d="M57.1,57.4l-7.2-7.2l7.2-7.2l7.2,7.2L57.1,57.4z M50.8,50.3l6.3,6.3l6.3-6.3L57.1,44L50.8,50.3z"/>
				<path class="st5" d="M57.1,44l-7.2-7.2l7.2-7.2l7.2,7.2L57.1,44z M50.8,36.8l6.3,6.3l6.3-6.3l-6.3-6.3L50.8,36.8z"/>
				<path class="st5" d="M63.8,50.7l-7.2-7.2l7.2-7.2l7.2,7.2L63.8,50.7z M57.5,43.5l6.3,6.3l6.3-6.3l-6.3-6.3L57.5,43.5z"/>
				<path class="st5" d="M63.8,37.2L56.6,30l7.2-7.2L71,30L63.8,37.2z M57.5,30l6.3,6.3l6.3-6.3l-6.3-6.3L57.5,30z"/>
				<path class="st5" d="M70.6,44l-7.2-7.2l7.2-7.2l7.2,7.2L70.6,44z M64.3,36.8l6.3,6.3l6.3-6.3l-6.3-6.3L64.3,36.8z"/>
				<path class="st5" d="M70.6,30.5l-7.2-7.2l7.2-7.2l7.2,7.2L70.6,30.5z M64.3,23.3l6.3,6.3l6.3-6.3L70.6,17L64.3,23.3z"/>
				<path class="st5" d="M77.3,37.2L70.1,30l7.2-7.2l7.2,7.2L77.3,37.2z M71,30l6.3,6.3l6.3-6.3l-6.3-6.3L71,30z"/>
				<path class="st5" d="M77.3,23.8l-7.2-7.2l7.2-7.2l7.2,7.2L77.3,23.8z M71,16.6l6.3,6.3l6.3-6.3l-6.3-6.3L71,16.6z"/>
				<path class="st5" d="M84,30.5l-7.2-7.2l7.2-7.2l7.2,7.2L84,30.5z M77.7,23.3l6.3,6.3l6.3-6.3L84,17L77.7,23.3z"/>
				<path class="st5" d="M84,17l-7.2-7.2L84,2.6l7.2,7.2L84,17z M77.7,9.8l6.3,6.3l6.3-6.3L84,3.5L77.7,9.8z"/>
				<path class="st5" d="M90.8,23.8l-7.2-7.2l7.2-7.2l7.2,7.2L90.8,23.8z M84.5,16.6l6.3,6.3l6.3-6.3l-6.3-6.3L84.5,16.6z"/>
				<path class="st5" d="M90.8,10.3l-7.2-7.2l7.2-7.2L98,3.1L90.8,10.3z M84.5,3.1l6.3,6.3l6.3-6.3l-6.3-6.3L84.5,3.1z"/>
				<path class="st5" d="M97.5,17l-7.2-7.2l7.2-7.2l7.2,7.2L97.5,17z M91.2,9.8l6.3,6.3l6.3-6.3l-6.3-6.3L91.2,9.8z"/>
				<path class="st5" d="M97.5,3.5l-7.2-7.2l7.2-7.2l7.2,7.2L97.5,3.5z M91.2-3.7l6.3,6.3l6.3-6.3l-6.3-6.3L91.2-3.7z"/>
				<path class="st5" d="M104.3,10.3l-7.2-7.2l7.2-7.2l7.2,7.2L104.3,10.3z M98,3.1l6.3,6.3l6.3-6.3l-6.3-6.3L98,3.1z"/>
				<path class="st5" d="M111,3.5l-7.2-7.2l7.2-7.2l7.2,7.2L111,3.5z M104.7-3.7l6.3,6.3l6.3-6.3L111-9.9L104.7-3.7z"/>
				<path class="st5" d="M50.3,77.7l-7.2-7.2l7.2-7.2l7.2,7.2L50.3,77.7z M44,70.5l6.3,6.3l6.3-6.3l-6.3-6.3L44,70.5z"/>
				<path class="st5" d="M57.1,84.4l-7.2-7.2l7.2-7.2l7.2,7.2L57.1,84.4z M50.8,77.2l6.3,6.3l6.3-6.3l-6.3-6.3L50.8,77.2z"/>
				<path class="st5" d="M57.1,70.9l-7.2-7.2l7.2-7.2l7.2,7.2L57.1,70.9z M50.8,63.7l6.3,6.3l6.3-6.3l-6.3-6.3L50.8,63.7z"/>
				<path class="st5" d="M63.8,77.7l-7.2-7.2l7.2-7.2l7.2,7.2L63.8,77.7z M57.5,70.5l6.3,6.3l6.3-6.3l-6.3-6.3L57.5,70.5z"/>
				<path class="st5" d="M63.8,64.2L56.6,57l7.2-7.2L71,57L63.8,64.2z M57.5,57l6.3,6.3l6.3-6.3l-6.3-6.3L57.5,57z"/>
				<path class="st5" d="M70.6,70.9l-7.2-7.2l7.2-7.2l7.2,7.2L70.6,70.9z M64.3,63.7l6.3,6.3l6.3-6.3l-6.3-6.3L64.3,63.7z"/>
				<path class="st5" d="M70.6,57.4l-7.2-7.2l7.2-7.2l7.2,7.2L70.6,57.4z M64.3,50.3l6.3,6.3l6.3-6.3L70.6,44L64.3,50.3z"/>
				<path class="st5" d="M77.3,64.2L70.1,57l7.2-7.2l7.2,7.2L77.3,64.2z M71,57l6.3,6.3l6.3-6.3l-6.3-6.3L71,57z"/>
				<path class="st5" d="M77.3,50.7l-7.2-7.2l7.2-7.2l7.2,7.2L77.3,50.7z M71,43.5l6.3,6.3l6.3-6.3l-6.3-6.3L71,43.5z"/>
				<path class="st5" d="M84,57.4l-7.2-7.2l7.2-7.2l7.2,7.2L84,57.4z M77.7,50.3l6.3,6.3l6.3-6.3L84,44L77.7,50.3z"/>
				<path class="st5" d="M84,44l-7.2-7.2l7.2-7.2l7.2,7.2L84,44z M77.7,36.8l6.3,6.3l6.3-6.3L84,30.5L77.7,36.8z"/>
				<path class="st5" d="M90.8,50.7l-7.2-7.2l7.2-7.2l7.2,7.2L90.8,50.7z M84.5,43.5l6.3,6.3l6.3-6.3l-6.3-6.3L84.5,43.5z"/>
				<path class="st5" d="M90.8,37.2L83.6,30l7.2-7.2L98,30L90.8,37.2z M84.5,30l6.3,6.3l6.3-6.3l-6.3-6.3L84.5,30z"/>
				<path class="st5" d="M97.5,44l-7.2-7.2l7.2-7.2l7.2,7.2L97.5,44z M91.2,36.8l6.3,6.3l6.3-6.3l-6.3-6.3L91.2,36.8z"/>
				<path class="st5" d="M97.5,30.5l-7.2-7.2l7.2-7.2l7.2,7.2L97.5,30.5z M91.2,23.3l6.3,6.3l6.3-6.3L97.5,17L91.2,23.3z"/>
				<path class="st5" d="M104.3,37.2L97.1,30l7.2-7.2l7.2,7.2L104.3,37.2z M98,30l6.3,6.3l6.3-6.3l-6.3-6.3L98,30z"/>
				<path class="st5" d="M104.3,23.8l-7.2-7.2l7.2-7.2l7.2,7.2L104.3,23.8z M98,16.6l6.3,6.3l6.3-6.3l-6.3-6.3L98,16.6z"/>
				<path class="st5" d="M111,30.5l-7.2-7.2l7.2-7.2l7.2,7.2L111,30.5z M104.7,23.3l6.3,6.3l6.3-6.3L111,17L104.7,23.3z"/>
				<path class="st5" d="M111,17l-7.2-7.2l7.2-7.2l7.2,7.2L111,17z M104.7,9.8l6.3,6.3l6.3-6.3L111,3.5L104.7,9.8z"/>
				<path class="st5" d="M117.7,23.8l-7.2-7.2l7.2-7.2l7.2,7.2L117.7,23.8z M111.4,16.6l6.3,6.3l6.3-6.3l-6.3-6.3L111.4,16.6z"/>
				<path class="st5" d="M117.7,10.3l-7.2-7.2l7.2-7.2l7.2,7.2L117.7,10.3z M111.4,3.1l6.3,6.3l6.3-6.3l-6.3-6.3L111.4,3.1z"/>
				<path class="st5" d="M124.5,17l-7.2-7.2l7.2-7.2l7.2,7.2L124.5,17z M118.2,9.8l6.3,6.3l6.3-6.3l-6.3-6.3L118.2,9.8z"/>
				<path class="st5" d="M124.5,3.5l-7.2-7.2l7.2-7.2l7.2,7.2L124.5,3.5z M118.2-3.7l6.3,6.3l6.3-6.3l-6.3-6.3L118.2-3.7z"/>
				<path class="st5" d="M131.2,10.3L124,3.1l7.2-7.2l7.2,7.2L131.2,10.3z M124.9,3.1l6.3,6.3l6.3-6.3l-6.3-6.3L124.9,3.1z"/>
				<path class="st5" d="M137.9,3.5l-7.2-7.2l7.2-7.2l7.2,7.2L137.9,3.5z M131.7-3.7l6.3,6.3l6.3-6.3l-6.3-6.3L131.7-3.7z"/>
				<path class="st5" d="M63.8,91.1L56.6,84l7.2-7.2L71,84L63.8,91.1z M57.5,84l6.3,6.3l6.3-6.3l-6.3-6.3L57.5,84z"/>
				<path class="st5" d="M70.6,97.9l-7.2-7.2l7.2-7.2l7.2,7.2L70.6,97.9z M64.3,90.7l6.3,6.3l6.3-6.3l-6.3-6.3L64.3,90.7z"/>
				<path class="st5" d="M70.6,84.4l-7.2-7.2l7.2-7.2l7.2,7.2L70.6,84.4z M64.3,77.2l6.3,6.3l6.3-6.3l-6.3-6.3L64.3,77.2z"/>
				<path class="st5" d="M77.3,91.1L70.1,84l7.2-7.2l7.2,7.2L77.3,91.1z M71,84l6.3,6.3l6.3-6.3l-6.3-6.3L71,84z"/>
				<path class="st5" d="M77.3,77.7l-7.2-7.2l7.2-7.2l7.2,7.2L77.3,77.7z M71,70.5l6.3,6.3l6.3-6.3l-6.3-6.3L71,70.5z"/>
				<path class="st5" d="M84,84.4l-7.2-7.2L84,70l7.2,7.2L84,84.4z M77.7,77.2l6.3,6.3l6.3-6.3L84,70.9L77.7,77.2z"/>
				<path class="st5" d="M84,70.9l-7.2-7.2l7.2-7.2l7.2,7.2L84,70.9z M77.7,63.7L84,70l6.3-6.3L84,57.4L77.7,63.7z"/>
				<path class="st5" d="M90.8,77.7l-7.2-7.2l7.2-7.2l7.2,7.2L90.8,77.7z M84.5,70.5l6.3,6.3l6.3-6.3l-6.3-6.3L84.5,70.5z"/>
				<path class="st5" d="M90.8,64.2L83.6,57l7.2-7.2L98,57L90.8,64.2z M84.5,57l6.3,6.3l6.3-6.3l-6.3-6.3L84.5,57z"/>
				<path class="st5" d="M97.5,70.9l-7.2-7.2l7.2-7.2l7.2,7.2L97.5,70.9z M91.2,63.7l6.3,6.3l6.3-6.3l-6.3-6.3L91.2,63.7z"/>
				<path class="st5" d="M97.5,57.4l-7.2-7.2l7.2-7.2l7.2,7.2L97.5,57.4z M91.2,50.3l6.3,6.3l6.3-6.3L97.5,44L91.2,50.3z"/>
				<path class="st5" d="M104.3,64.2L97.1,57l7.2-7.2l7.2,7.2L104.3,64.2z M98,57l6.3,6.3l6.3-6.3l-6.3-6.3L98,57z"/>
				<path class="st5" d="M104.3,50.7l-7.2-7.2l7.2-7.2l7.2,7.2L104.3,50.7z M98,43.5l6.3,6.3l6.3-6.3l-6.3-6.3L98,43.5z"/>
				<path class="st5" d="M111,57.4l-7.2-7.2l7.2-7.2l7.2,7.2L111,57.4z M104.7,50.3l6.3,6.3l6.3-6.3L111,44L104.7,50.3z"/>
				<path class="st5" d="M111,44l-7.2-7.2l7.2-7.2l7.2,7.2L111,44z M104.7,36.8l6.3,6.3l6.3-6.3l-6.3-6.3L104.7,36.8z"/>
				<path class="st5" d="M117.7,50.7l-7.2-7.2l7.2-7.2l7.2,7.2L117.7,50.7z M111.4,43.5l6.3,6.3l6.3-6.3l-6.3-6.3L111.4,43.5z"/>
				<path class="st5" d="M117.7,37.2l-7.2-7.2l7.2-7.2l7.2,7.2L117.7,37.2z M111.4,30l6.3,6.3L124,30l-6.3-6.3L111.4,30z"/>
				<path class="st5" d="M124.5,44l-7.2-7.2l7.2-7.2l7.2,7.2L124.5,44z M118.2,36.8l6.3,6.3l6.3-6.3l-6.3-6.3L118.2,36.8z"/>
				<path class="st5" d="M124.5,30.5l-7.2-7.2l7.2-7.2l7.2,7.2L124.5,30.5z M118.2,23.3l6.3,6.3l6.3-6.3l-6.3-6.3L118.2,23.3z"/>
				<path class="st5" d="M131.2,37.2L124,30l7.2-7.2l7.2,7.2L131.2,37.2z M124.9,30l6.3,6.3l6.3-6.3l-6.3-6.3L124.9,30z"/>
				<path class="st5" d="M131.2,23.8l-7.2-7.2l7.2-7.2l7.2,7.2L131.2,23.8z M124.9,16.6l6.3,6.3l6.3-6.3l-6.3-6.3L124.9,16.6z"/>
				<path class="st5" d="M137.9,30.5l-7.2-7.2l7.2-7.2l7.2,7.2L137.9,30.5z M131.7,23.3l6.3,6.3l6.3-6.3l-6.3-6.3L131.7,23.3z"/>
				<path class="st5" d="M137.9,17l-7.2-7.2l7.2-7.2l7.2,7.2L137.9,17z M131.7,9.8l6.3,6.3l6.3-6.3l-6.3-6.3L131.7,9.8z"/>
				<path class="st5" d="M144.7,23.8l-7.2-7.2l7.2-7.2l7.2,7.2L144.7,23.8z M138.4,16.6l6.3,6.3l6.3-6.3l-6.3-6.3L138.4,16.6z"/>
				<path class="st5" d="M144.7,10.3l-7.2-7.2l7.2-7.2l7.2,7.2L144.7,10.3z M138.4,3.1l6.3,6.3l6.3-6.3l-6.3-6.3L138.4,3.1z"/>
				<path class="st5" d="M151.4,17l-7.2-7.2l7.2-7.2l7.2,7.2L151.4,17z M145.1,9.8l6.3,6.3l6.3-6.3l-6.3-6.3L145.1,9.8z"/>
				<path class="st5" d="M151.4,3.5l-7.2-7.2l7.2-7.2l7.2,7.2L151.4,3.5z M145.1-3.7l6.3,6.3l6.3-6.3l-6.3-6.3L145.1-3.7z"/>
			</g>
			<circle class="st6" cx="16.6" cy="3.1" r="1.6"/>
			<circle class="st6" cx="3.2" cy="3.1" r="1.6"/>
			<circle class="st6" cx="9.9" cy="9.8" r="1.6"/>
			<circle class="st6" cx="3.2" cy="16.6" r="1.6"/>
			<circle class="st6" cx="137.9" cy="3.1" r="1.6"/>
			<circle class="st6" cx="124.5" cy="3.1" r="1.6"/>
			<circle class="st6" cx="131.2" cy="9.8" r="1.6"/>
			<circle class="st6" cx="111" cy="3.1" r="1.6"/>
			<circle class="st6" cx="117.7" cy="9.8" r="1.6"/>
			<circle class="st6" cx="124.5" cy="16.6" r="1.6"/>
			<circle class="st6" cx="97.5" cy="3.1" r="1.6"/>
			<circle class="st6" cx="104.3" cy="9.8" r="1.6"/>
			<circle class="st6" cx="111" cy="16.6" r="1.6"/>
			<circle class="st6" cx="117.7" cy="23.3" r="1.6"/>
			<circle class="st6" cx="84" cy="3.1" r="1.6"/>
			<circle class="st6" cx="90.8" cy="9.8" r="1.6"/>
			<circle class="st6" cx="97.5" cy="16.6" r="1.6"/>
			<circle class="st6" cx="104.3" cy="23.3" r="1.6"/>
			<circle class="st6" cx="111" cy="30" r="1.6"/>
			<circle class="st6" cx="70.6" cy="3.1" r="1.6"/>
			<circle class="st6" cx="77.3" cy="9.8" r="1.6"/>
			<circle class="st6" cx="84" cy="16.6" r="1.6"/>
			<circle class="st6" cx="90.8" cy="23.3" r="1.6"/>
			<circle class="st6" cx="97.5" cy="30" r="1.6"/>
			<circle class="st6" cx="104.3" cy="36.8" r="1.6"/>
			<circle class="st6" cx="57.1" cy="3.1" r="1.6"/>
			<circle class="st6" cx="63.8" cy="9.8" r="1.6"/>
			<circle class="st6" cx="70.6" cy="16.6" r="1.6"/>
			<circle class="st6" cx="77.3" cy="23.3" r="1.6"/>
			<circle class="st6" cx="84" cy="30" r="1.6"/>
			<circle class="st6" cx="90.8" cy="36.8" r="1.6"/>
			<circle class="st6" cx="97.5" cy="43.5" r="1.6"/>
			<circle class="st6" cx="43.6" cy="3.1" r="1.6"/>
			<circle class="st6" cx="50.3" cy="9.8" r="1.6"/>
			<circle class="st6" cx="57.1" cy="16.6" r="1.6"/>
			<circle class="st6" cx="63.8" cy="23.3" r="1.6"/>
			<circle class="st6" cx="70.6" cy="30" r="1.6"/>
			<circle class="st6" cx="77.3" cy="36.8" r="1.6"/>
			<circle class="st6" cx="84" cy="43.5" r="1.6"/>
			<circle class="st6" cx="90.8" cy="50.3" r="1.6"/>
			<circle class="st6" cx="30.1" cy="3.1" r="1.6"/>
			<circle class="st6" cx="36.9" cy="9.8" r="1.6"/>
			<circle class="st6" cx="43.6" cy="16.6" r="1.6"/>
			<circle class="st6" cx="50.3" cy="23.3" r="1.6"/>
			<circle class="st6" cx="57.1" cy="30" r="1.6"/>
			<circle class="st6" cx="63.8" cy="36.8" r="1.6"/>
			<circle class="st6" cx="70.6" cy="43.5" r="1.6"/>
			<circle class="st6" cx="77.3" cy="50.3" r="1.6"/>
			<circle class="st6" cx="84" cy="57" r="1.6"/>
			<circle class="st6" cx="23.4" cy="9.8" r="1.6"/>
			<circle class="st6" cx="30.1" cy="16.6" r="1.6"/>
			<circle class="st6" cx="36.9" cy="23.3" r="1.6"/>
			<circle class="st6" cx="43.6" cy="30" r="1.6"/>
			<circle class="st6" cx="50.3" cy="36.8" r="1.6"/>
			<circle class="st6" cx="57.1" cy="43.5" r="1.6"/>
			<circle class="st6" cx="63.8" cy="50.3" r="1.6"/>
			<circle class="st6" cx="70.6" cy="57" r="1.6"/>
			<circle class="st6" cx="77.3" cy="63.7" r="1.6"/>
			<circle class="st6" cx="16.6" cy="16.6" r="1.6"/>
			<circle class="st6" cx="23.4" cy="23.3" r="1.6"/>
			<circle class="st6" cx="30.1" cy="30" r="1.6"/>
			<circle class="st6" cx="36.9" cy="36.8" r="1.6"/>
			<circle class="st6" cx="43.6" cy="43.5" r="1.6"/>
			<circle class="st6" cx="50.3" cy="50.3" r="1.6"/>
			<circle class="st6" cx="57.1" cy="57" r="1.6"/>
			<circle class="st6" cx="63.8" cy="63.7" r="1.6"/>
			<circle class="st6" cx="70.6" cy="70.5" r="1.6"/>
			<circle class="st6" cx="9.9" cy="23.3" r="1.6"/>
			<circle class="st6" cx="16.6" cy="30" r="1.6"/>
			<circle class="st6" cx="23.4" cy="36.8" r="1.6"/>
			<circle class="st6" cx="30.1" cy="43.5" r="1.6"/>
			<circle class="st6" cx="36.9" cy="50.3" r="1.6"/>
			<circle class="st6" cx="43.6" cy="57" r="1.6"/>
			<circle class="st6" cx="50.3" cy="63.7" r="1.6"/>
			<circle class="st6" cx="57.1" cy="70.5" r="1.6"/>
			<circle class="st6" cx="63.8" cy="77.2" r="1.6"/>
			<circle class="st6" cx="151.4" cy="3.1" r="1.6"/>
			<circle class="st6" cx="144.7" cy="9.8" r="1.6"/>
			<circle class="st6" cx="137.9" cy="16.6" r="1.6"/>
			<circle class="st6" cx="131.2" cy="23.3" r="1.6"/>
			<circle class="st6" cx="124.5" cy="30" r="1.6"/>
			<circle class="st6" cx="117.7" cy="36.8" r="1.6"/>
			<circle class="st6" cx="111" cy="43.5" r="1.6"/>
			<circle class="st6" cx="104.3" cy="50.3" r="1.6"/>
			<circle class="st6" cx="97.5" cy="57" r="1.6"/>
			<circle class="st6" cx="90.8" cy="63.7" r="1.6"/>
			<circle class="st6" cx="84" cy="70.5" r="1.6"/>
			<circle class="st6" cx="77.3" cy="77.2" r="1.6"/>
			<circle class="st6" cx="70.6" cy="84" r="1.6"/>
			<circle class="st6" cx="3.2" cy="30" r="1.6"/>
			<circle class="st6" cx="9.9" cy="36.8" r="1.6"/>
			<circle class="st6" cx="16.6" cy="43.5" r="1.6"/>
			<circle class="st6" cx="23.4" cy="50.3" r="1.6"/>
			<circle class="st6" cx="30.1" cy="57" r="1.6"/>
			<circle class="st6" cx="36.9" cy="63.7" r="1.6"/>
			<circle class="st6" cx="43.6" cy="70.5" r="1.6"/>
			<circle class="st6" cx="50.3" cy="77.2" r="1.6"/>
			<circle class="st6" cx="57.1" cy="84" r="1.6"/>
			<circle class="st6" cx="63.8" cy="90.7" r="1.6"/>
			<circle class="st6" cx="63.8" cy="104.2" r="1.6"/>
			<circle class="st6" cx="57.1" cy="110.9" r="1.6"/>
			<circle class="st6" cx="50.3" cy="117.6" r="1.6"/>
			<circle class="st6" cx="43.6" cy="124.4" r="1.6"/>
			<circle class="st6" cx="36.9" cy="131.1" r="1.6"/>
			<circle class="st6" cx="30.1" cy="137.9" r="1.6"/>
			<circle class="st6" cx="23.4" cy="144.6" r="1.6"/>
			<circle class="st6" cx="16.6" cy="151.3" r="1.6"/>
			<circle class="st6" cx="9.9" cy="158.1" r="1.6"/>
			<circle class="st6" cx="3.2" cy="164.8" r="1.6"/>
			<circle class="st6" cx="151.4" cy="16.6" r="1.6"/>
			<circle class="st6" cx="144.7" cy="23.3" r="1.6"/>
			<circle class="st6" cx="137.9" cy="30" r="1.6"/>
			<circle class="st6" cx="131.2" cy="36.8" r="1.6"/>
			<circle class="st6" cx="124.5" cy="43.5" r="1.6"/>
			<circle class="st6" cx="117.7" cy="50.3" r="1.6"/>
			<circle class="st6" cx="111" cy="57" r="1.6"/>
			<circle class="st6" cx="104.3" cy="63.7" r="1.6"/>
			<circle class="st6" cx="97.5" cy="70.5" r="1.6"/>
			<circle class="st6" cx="90.8" cy="77.2" r="1.6"/>
			<circle class="st6" cx="84" cy="84" r="1.6"/>
			<circle class="st6" cx="77.3" cy="90.7" r="1.6"/>
			<circle class="st6" cx="70.6" cy="97.4" r="1.6"/>
		</g>
	</g>
</g>
</svg>
